<svg xmlns="http://www.w3.org/2000/svg"><symbol id="svgstore--arrow-down" viewBox="0 0 32 32"><path d="M18.8 29.2l8.5-8.5-2.8-2.8-6.5 6.4V0h-4v24.3l-6.5-6.4-2.8 2.8 8.5 8.5L16 32z"/></symbol><symbol id="svgstore--arrow-left" viewBox="0 0 32 32"><path d="M2.8 18.8l8.5 8.5 2.8-2.8L7.7 18H32v-4H7.7l6.4-6.5-2.8-2.8-8.5 8.5L0 16z"/></symbol><symbol id="svgstore--arrow-right" viewBox="0 0 32 32"><path d="M29.2 13.2l-8.5-8.5-2.8 2.8 6.4 6.5H0v4h24.3l-6.4 6.5 2.8 2.8 8.5-8.5L32 16z"/></symbol><symbol id="svgstore--arrow-up" viewBox="0 0 32 32"><path d="M13.2 2.8l-8.5 8.5 2.8 2.8L14 7.7V32h4V7.7l6.5 6.4 2.8-2.8-8.5-8.5L16 0z"/></symbol><symbol id="svgstore--back-to-top" viewBox="0 0 58 58"><path fill-rule="evenodd" clip-rule="evenodd" d="M0 0h58v58H0z"/><path d="M40.3 33L29.4 22 18.5 33" fill="none" stroke="#fff" stroke-width="4" stroke-linecap="square"/></symbol><symbol id="svgstore--background-arrows-lg-gray" viewBox="0 0 1440 1145"><path opacity=".1" fill="#AAAEAD" d="M1400.6 629.5L1040 1145H0V0h960.3z"/><path opacity=".1" fill="#AAAEAD" d="M1012.4 531.2L583 1145H0V0h640.7z"/><path opacity=".1" fill="#AAAEAD" d="M632.2 656.5L290.4 1145H0V0h172.9z"/></symbol><symbol id="svgstore--background-arrows-lg-white" viewBox="0 0 1440 1145"><path opacity=".1" fill="#FFF" d="M960.3 0H172.9l459.3 656.5L290.4 1145H1040l360.6-515.5z"/><path opacity=".07" fill="#FFF" d="M640.7 0H172.9l459.3 656.5L290.4 1145H583l429.4-613.8z"/></symbol><symbol id="svgstore--background-arrows-sm-gray" viewBox="0 0 1440 1145"><path opacity=".1" fill="#AAAEAD" d="M0 0v1145h1440V0H0z"/><path opacity=".1" fill="#AAAEAD" d="M949.5 0H0v1145h875l437.8-625.8L949.5 0z"/><path opacity=".1" fill="#AAAEAD" d="M770.8 656.5L429 1145H0V0h311.5z"/></symbol><symbol id="svgstore--background-arrows-sm-white" viewBox="0 0 1440 1145"><path opacity=".1" fill="#FFF" d="M1312.8 519.2L875 1145H0V0h949.5z"/><path opacity=".07" fill="#FFF" d="M770.8 656.5L429 1145H0V0h311.5z"/></symbol><symbol id="svgstore--caret-down-thick" viewBox="0 0 11.4 7.9"><path d="M6.8 6.8L5.7 7.9 0 2.2 2.2 0l3.5 3.5L9.3 0l2.1 2.2-4.6 4.6z"/></symbol><symbol id="svgstore--caret-down" viewBox="0 0 20 15"><path d="M10 14.2L0 2.8 2.2.5 10 9.4 17.8.5 20 2.8z"/></symbol><symbol id="svgstore--caret-left-thin" viewBox="0 0 100 184"><path d="M0 92.1c0-2.1.8-4.2 2.3-5.7L86.4 2.3c3.1-3.1 8.2-3.1 11.3 0s3.1 8.2 0 11.3L19.3 92l78.4 78.3c3.1 3.1 3.1 8.2 0 11.3-3.1 3.1-8.2 3.1-11.3 0l-84.1-84C.8 96.3 0 94.2 0 92.1z"/></symbol><symbol id="svgstore--caret-left" viewBox="0 0 13.7 20"><path d="M0 10L11.4 0l2.3 2.2L4.8 10l8.9 7.8-2.3 2.2z"/></symbol><symbol id="svgstore--caret-right-thick" viewBox="0 0 9 12"><path d="M7.3 4.6l1.1 1.1-5.7 5.7L.5 9.2 4 5.7.5 2.1 2.7 0l4.6 4.6z"/></symbol><symbol id="svgstore--caret-right-thin" viewBox="0 0 100 184"><path d="M100 91.8c0 2.1-.8 4.2-2.3 5.7l-84.1 84.1c-3.1 3.1-8.2 3.1-11.3 0-3.1-3.1-3.1-8.2 0-11.3l78.4-78.4L2.3 13.6c-3.1-3.1-3.1-8.2 0-11.3s8.2-3.1 11.3 0l84.1 84c1.5 1.3 2.3 3.4 2.3 5.5z"/></symbol><symbol id="svgstore--caret-right" viewBox="0 0 13.7 20"><path d="M13.7 10L2.3 20 0 17.8 8.9 10 0 2.2 2.3 0z"/></symbol><symbol id="svgstore--caret-sort" viewBox="0 0 20 28.9"><path d="M10 0l10 11.4-2.2 2.3L10 4.8l-7.8 8.9L0 11.4zM10 28.9L0 17.5l2.2-2.3 7.8 8.9 7.8-8.9 2.2 2.3z"/></symbol><symbol id="svgstore--caret-up" viewBox="0 0 20 15"><path d="M10 .5l10 11.4-2.2 2.3L10 5.3l-7.8 8.9L0 11.9z"/></symbol><symbol id="svgstore--check-mark" viewBox="0 0 15 12"><path d="M13.1 0l-8 8.3-3.4-2.9L0 7.6l4.4 3.6.9.8.9-.9L15 1.9z"/></symbol><symbol id="svgstore--close" viewBox="0 0 21 21"><path d="M12.6 10.5l7.8-7.8L18.3.6l-7.8 7.8L2.7.6.6 2.7l7.8 7.8-7.8 7.8 2.1 2.1 7.8-7.8 7.8 7.8 2.1-2.1-7.8-7.8z"/></symbol><symbol id="svgstore--comment" viewBox="0 0 1792 1792"><path d="M1792 896q0 174-120 321.5t-326 233-450 85.5q-70 0-145-8-198 175-460 242-49 14-114 22-17 2-30.5-9t-17.5-29v-1q-3-4-.5-12t2-10 4.5-9.5l6-9 7-8.5 8-9q7-8 31-34.5t34.5-38 31-39.5 32.5-51 27-59 26-76q-157-89-247.5-220T0 896q0-130 71-248.5T262 443t286-136.5T896 256q244 0 450 85.5t326 233T1792 896z"/></symbol><symbol id="svgstore--copy" viewBox="0 0 18 18"><path d="M12 17H1V6h11v11zm-9-2h7V8H3v7z"/><path d="M17 12h-4v-2h2V3H8v2H6V1h11z"/></symbol><symbol id="svgstore--edit" viewBox="0 0 18 18"><path d="M14 7L4 17H1v-3L11 4zm-1.975-3.995l1.98-1.98 2.97 2.97-1.98 1.98z"/></symbol><symbol id="svgstore--expand" viewBox="0 0 32 32"><path d="M10.5.5v3h15.9L3.5 26.4V10.5h-3v21h21v-3H5.6L28.5 5.6v15.9h3V.5z"/></symbol><symbol id="svgstore--file-excel" viewBox="0 0 19 23"><path d="M18.4 6.7L11.8 0H0v23h18.4V6.7zm-6.1-3.9l3.6 3.7h-3.6V2.8zM1.6 21.4V1.6h9V8h6.1v13.3H1.6v.1z"/><path d="M4 13h4v2H4v-2zm5 0h4v2H9v-2zm-5 3h4v2H4v-2zm5 0h4v2H9v-2z"/></symbol><symbol id="svgstore--file-pdf" viewBox="0 0 21 23"><path d="M18.4 6.7L11.8 0H0v23h18.4V6.7zm-6.1-3.9l3.6 3.7h-3.6V2.8zM1.6 21.4V1.6h9V8h6.1v13.3H1.6v.1z"/><path d="M9 13h12v5H9z"/></symbol><symbol id="svgstore--file-powerpoint" viewBox="0 0 19 23"><path d="M18.4 6.7L11.8 0H0v23h18.4V6.7zm-6.1-3.9l3.6 3.7h-3.6V2.8zM1.6 21.4V1.6h9V8h6.1v13.3H1.6v.1z"/><path d="M9 11c-2.2 0-4 1.8-4 4s1.8 4 4 4 4-1.8 4-4H9v-4zm1-1c2.2 0 4 1.8 4 4l-4-.1V10z"/></symbol><symbol id="svgstore--file-word" viewBox="0 0 19 23"><path d="M18.4 6.7L11.8 0H0v23h18.4V6.7zm-6.1-3.9l3.6 3.7h-3.6V2.8zM1.6 21.4V1.6h9V8h6.1v13.3H1.6v.1z"/><path d="M4 13h10v2H4v-2zm0 3h8v2H4v-2z"/></symbol><symbol id="svgstore--grid" viewBox="0 0 20 20"><path d="M5.5 5.5H0V0h5.5v5.5zM12.8 0H7.2v5.5h5.5V0zM20 0h-5.5v5.5H20V0zM5.5 7.2H0v5.5h5.5V7.2zm7.3 0H7.2v5.5h5.5V7.2zm7.2 0h-5.5v5.5H20V7.2zM5.5 14.5H0V20h5.5v-5.5zm7.3 0H7.2V20h5.5v-5.5zm7.2 0h-5.5V20H20v-5.5z"/></symbol><symbol id="svgstore--heart" viewBox="0 0 1792 1792"><path d="M896 1664q-26 0-44-18l-624-602q-10-8-27.5-26T145 952.5 77 855 23.5 734 0 596q0-220 127-344t351-124q62 0 126.5 21.5t120 58T820 276t76 68q36-36 76-68t95.5-68.5 120-58T1314 128q224 0 351 124t127 344q0 221-229 450l-623 600q-18 18-44 18z"/></symbol><symbol id="svgstore--home" viewBox="0 0 12 11"><path d="M12 5.9h-1.8V11H7.6V7.6H4.4V11H1.8V5.9H0L6 0z"/></symbol><symbol id="svgstore--list" viewBox="0 0 20 20"><path d="M0 0h4v4H0zM8 0h12v4H8zM0 8h4v4H0zM8 8h12v4H8zM0 16h4v4H0zM8 16h12v4H8z"/></symbol><symbol id="svgstore--logo" viewBox="0 0 87 39"><g fill="none" fill-rule="evenodd"><path d="M87 18.288c0 5.756-2.132 10.5-6.407 14.245-2.807 2.45-6.002 3.866-9.592 4.249-1.083.126-2.417.147-3.38.139l-1.359-.029s-.303-.465-.318-1.556c.036-1.157.309-1.771.309-1.771.231.03.536.023.556.022 1.845-.085 5.994-1.564 8.192-3.064 3.87-2.661 5.801-6.554 5.801-11.665 0-2.745-.597-5.308-1.802-7.694-2.46-4.906-6.946-7.355-13.467-7.355-1.55 0-4.556.349-6.462.764L59.065 39c-2.979-1.007-5.575-2.978-7.794-5.919L32.345 9.086V29.92c0 2.54.212 4.302.633 5.298.344.798.981 1.444 1.91 1.927h-8.032v-3.914c-.837 1.063-1.787 1.921-2.851 2.583-2.456 1.498-5.23 2.242-8.318 2.242-3.417 0-6.295-.83-8.626-2.496-2.143-1.537-3.53-3.66-4.162-6.368-.241-1.115-.36-2.968-.36-5.558V7.222c0-2.537-.212-4.303-.628-5.293C1.561 1.126.923.486 0 0h10.721C9.727.518 9.048 1.249 8.68 2.187c-.329 1.028-.496 2.71-.496 5.035v16.413c0 1.983.146 3.443.443 4.384.577 1.86 1.684 3.323 3.32 4.379 1.57 1.013 3.384 1.514 5.441 1.514 2.462 0 4.604-.71 6.434-2.138 1.22-.958 2.047-2.037 2.483-3.237.265-.727.393-1.717.393-2.973V7.222c0-2.537-.21-4.303-.625-5.293-.35-.803-.987-1.443-1.91-1.929l8.49.027c.157.383.611 1.077 1.36 2.084l19.405 24.736V6.667c-.022-2.067-.25-4.262-.789-5.088-.56-.855-.768-.944-1.73-1.552 0 0 13.85-.027 15.05-.027 3.682 0 6.715.447 9.1 1.352 3.838 1.48 6.818 3.758 8.945 6.838C86.003 11.131 87 14.497 87 18.288" fill="#009A44"/><path d="M71.119 16s2.557 1.577 3.6 4.826c.526 1.888.252 3.687-.321 4.99-.123.281-.26.554-.409.818a9.72 9.72 0 0 1-2.287 2.692c-1.164 1.02-2.258 1.47-3.53 1.944-.689.258-1.289.403-2.172.73.286-.736.861-1.599 1.302-2.18.247-.326.526-.625.792-.933a16.752 16.752 0 0 0 1.72-2.398c.74-1.319 1.414-2.698 1.78-5.082.1-.595.12-1.372.093-1.967a13.659 13.659 0 0 0-.568-3.44" fill="#FF671F"/><path d="M65.08 37c-.564-.678-1.31-1.742-1.742-2.642a13.635 13.635 0 0 1-1.26-4.323c-.159-1.408-.08-2.913.277-4.155.763-2.68 2.807-4.284 4.02-6.724a9.821 9.821 0 0 0 .946-3.354 7.674 7.674 0 0 0-.555-3.532c-.175-.407-.369-.853-.62-1.27 0 0 .773.379 1.546 1.114.335.31.694.69 1.054 1.153.16.204 1.602 2.175 2.057 4.859.11.673.17 1.3.195 1.886.05 2.824-.867 5.151-1.628 6.368a15.498 15.498 0 0 1-1.067 1.541c-.728.9-1.54 1.692-2.669 3.767-.124.246-.308.671-.373.897-.143.505-.283.977-.346 1.404a7.88 7.88 0 0 0-.017 2.082c.065.604.182.928.182.929" fill="#FF671F"/></g></symbol><symbol id="svgstore--logo_light" viewBox="0 0 430.000000 100.000000"><path d="M30 25c4.7 2.7 9 5 9.7 5 1 0 15.8-8.2 17.2-9.6.2-.2-7.6-.4-17.5-.4H21.5l8.5 5zM58 42.1c0 .5.5.7 1 .4.6-.3 1-.8 1-1.1 0-.2-.4-.4-1-.4-.5 0-1 .5-1 1.1zM34 46.5c0 1.8.5 2.5 2 2.5s2-.7 2-2.5-.5-2.5-2-2.5-2 .7-2 2.5zM43 51.5c0 7.3.1 7.5 2.5 7.5s2.5-.2 2.5-7.5-.1-7.5-2.5-7.5-2.5.2-2.5 7.5zM34 56.5c0 1.8.5 2.5 2 2.5s2-.7 2-2.5-.5-2.5-2-2.5-2 .7-2 2.5z"/></symbol><symbol id="svgstore--logotype" viewBox="0 0 657.5 71.6"><path d="M177.6 35.4v26.3c0 2.4.3 4.1.9 5.1.6 1 1.5 1.9 2.6 2.6h-11.8c1.2-.8 2.1-1.7 2.7-2.9.5-1 .7-2.6.7-4.8V33.9c0-2.4-.3-4.1-.9-5.1-.6-1-1.5-1.9-2.6-2.6h9.7c.2.4.7 1.3 1.6 2.4l24.4 31.1V33.9c0-2.4-.3-4.1-.9-5.1-.6-1-1.5-1.9-2.6-2.6h11.8c-1.2.8-2.1 1.7-2.7 2.9-.5.9-.7 2.5-.7 4.8v37.8c-3.5-1.2-6.5-3.5-9.1-6.9l-23.1-29.4zM242.2 25c4 0 7.8.9 11.4 2.7 4.3 2.2 7.6 5.5 9.7 9.8 1.6 3.2 2.3 6.5 2.3 10 0 4.7-1.4 9.1-4.3 13.1-2.5 3.6-5.9 6.2-10.1 8-3.1 1.3-6.4 2-10 2-5.7 0-10.7-1.6-15-4.9-3.2-2.4-5.6-5.4-7.2-9-1.2-2.8-1.8-5.7-1.8-8.7 0-4.3 1.2-8.4 3.6-12.2 2.3-3.6 5.5-6.4 9.7-8.3 3.6-1.7 7.5-2.5 11.7-2.5zm-.9 4.7c-3.2 0-6.2.9-9 2.6-2.6 1.6-4.6 3.9-5.9 6.8-1.1 2.5-1.6 5.1-1.6 7.8 0 3.6.9 7 2.7 10.3 3.2 5.8 7.9 8.7 14.1 8.7 5.3 0 9.6-1.8 12.6-5.5 2.7-3.1 4-7.1 4-11.8 0-5.1-1.5-9.5-4.5-13.1-3.2-3.8-7.3-5.8-12.4-5.8zM280.4 30.7v30.4c0 2.9.2 5 .7 6.2.4.9 1.2 1.7 2.3 2.3h-12.5c1.2-.6 1.9-1.5 2.4-2.6.4-1.2.6-3.2.6-5.9V34.6c0-2.9-.2-5-.7-6.2-.4-.9-1.2-1.7-2.3-2.3h9.6c.1 0 1.2 0 3.1-.1 1.1 0 2-.1 2.8-.1 4.2 0 7.5.9 9.8 2.6 1.4 1 2.5 2.3 3.3 3.9.7 1.5 1.1 3 1.1 4.5 0 2.2-.8 4.3-2.4 6.3-2 2.5-4.8 4.1-8.3 5 2.2 3.1 5.2 6.8 8.9 11.2 4 4.8 7.8 8.1 11.3 10-3.1.2-5.1.4-6.1.4-2.1 0-4-.6-5.6-1.9-2.5-1.9-6.1-6.2-10.8-12.9-1.8-2.6-3.6-5.3-5.3-8.2 7.3-1.3 11-4.4 11-9.5 0-2.2-.8-4-2.4-5.4-1.5-1.3-3.3-1.9-5.5-1.9-1.6.2-3.1.3-5 .7zM339.5 25.7l-2.2 7.8c-.4-.8-.9-1.4-1.6-1.7-.9-.5-2.4-.7-4.5-.7-.1 0-2 .1-5.7.2v30.5c0 2.4.3 4.1.9 5.1.6 1 1.5 1.9 2.6 2.6h-13c1.2-.6 1.9-1.5 2.3-2.6.4-1.2.6-3.1.6-5.9V31.2c-1.6-.1-3.4-.2-5.3-.2-2.7 0-4.8.3-6.2 1-.6.3-1.4.8-2.3 1.5l2.4-7.8c.5.2 1.7.3 3.4.4h24.7c2.1-.1 3.4-.2 3.9-.4zM375.2 48.6h-23.8V61c0 2.9.2 5 .7 6.2.4.9 1.2 1.7 2.3 2.3h-12.5c1.2-.6 1.9-1.5 2.4-2.6.4-1.2.6-3.2.6-5.9V34.6c0-2.9-.2-5-.7-6.2-.4-.9-1.2-1.7-2.3-2.3h12.5c-1.2.6-2 1.5-2.4 2.6-.4 1.2-.6 3.2-.6 5.9v9h23.8v-9c0-3-.2-5-.7-6.2-.4-.9-1.2-1.7-2.2-2.3h12.5c-1.2.6-1.9 1.5-2.3 2.6-.4 1.2-.6 3.2-.6 5.9v26.5c0 3 .2 5 .7 6.2.4.9 1.1 1.7 2.2 2.3h-12.5c1.1-.6 1.9-1.5 2.3-2.6.4-1.2.6-3.1.6-5.9V48.6zM406.3 69.5c.8-.7 1.3-1.1 1.5-1.4 1-1 1.4-3.4 1.4-7.3V34.6c0-2.9-.2-5-.7-6.2-.4-.9-1.2-1.7-2.2-2.3h11c2 0 3.7-.1 5.1-.1 4.3 0 7.8.5 10.6 1.6 4.5 1.7 7.9 4.4 10.4 8 2.3 3.4 3.5 7.4 3.5 11.8 0 6.7-2.5 12.3-7.5 16.6-3.3 2.9-7 4.5-11.2 5-3 .3-6.8.5-11.3.5h-10.6zm9.6-5.4c1.6.3 3.3.5 4.9.5 5.3 0 9.3-1 12.2-2.9 4.5-3.1 6.8-7.6 6.8-13.6 0-3.2-.7-6.2-2.1-9-2.9-5.7-8.1-8.6-15.7-8.6-1.8 0-3.8.2-6 .7v32.9zM474.9 53.2h-16.6l-3.8 10.1c-.5 1.4-.8 2.5-.8 3.4 0 1.1.8 2.1 2.4 2.9H444c1.2-.7 2.1-1.5 2.9-2.3.7-.8 1.2-1.6 1.6-2.4.3-.6.9-2 1.7-4.1l11.6-28.9c.5-1.2.8-2.2.8-3 0-1.1-.7-1.9-2-2.6H471l13.8 34.5c1.1 2.6 1.9 4.3 2.4 5.1 1.1 1.6 2.4 2.9 4 3.8h-13.6c.8-.4 1.3-.7 1.5-.9.6-.5.9-1 .9-1.7 0-.5-.4-1.7-1.2-3.7l-3.9-10.2zm-1.7-4.3l-6.6-17.2-6.7 17.2h13.3zM505.8 34.6v26.5c0 2.9.2 5 .7 6.2.4.9 1.2 1.7 2.3 2.3h-12.5c1.2-.6 2-1.5 2.4-2.6.4-1.2.6-3.2.6-5.9V34.6c0-2.9-.2-5-.7-6.2-.4-.9-1.2-1.7-2.3-2.3h12.5c-1.2.6-2 1.5-2.4 2.6-.4 1.2-.6 3.1-.6 5.9zm1.1 12.3l9.1-12.1c2.2-2.9 3.3-4.9 3.3-5.9s-.7-2-2.1-2.8h11.9l-15.2 19.5 1.3 1.8c4.7 6.4 7.8 10.5 9.3 12.4 2 2.5 3.6 4.3 4.8 5.4 1.3 1.2 3.3 2.7 5.8 4.4-1.9.2-4 .3-6.3.3-2.7 0-4.9-.8-6.5-2.3-1.3-1.2-4-4.8-8.2-10.7-3.6-5.1-6-8.4-7.2-10z"/><path d="M556.3 25c4 0 7.8.9 11.4 2.7 4.3 2.2 7.6 5.5 9.7 9.8 1.6 3.2 2.3 6.5 2.3 10 0 4.7-1.4 9.1-4.3 13.1-2.5 3.6-5.9 6.2-10.1 8-3.1 1.3-6.4 2-10 2-5.7 0-10.7-1.6-15-4.9-3.2-2.4-5.6-5.4-7.2-9-1.2-2.8-1.8-5.7-1.8-8.7 0-4.3 1.2-8.4 3.6-12.2 2.3-3.6 5.5-6.4 9.7-8.3 3.7-1.7 7.5-2.5 11.7-2.5zm-.9 4.7c-3.2 0-6.2.9-9 2.6-2.6 1.6-4.6 3.9-5.9 6.8-1.1 2.5-1.6 5.1-1.6 7.8 0 3.6.9 7 2.7 10.3 3.2 5.8 7.9 8.7 14.1 8.7 5.3 0 9.6-1.8 12.6-5.5 2.7-3.1 4-7.1 4-11.8 0-5.1-1.5-9.5-4.5-13.1-3.2-3.8-7.3-5.8-12.4-5.8zM615.9 25.7l-2.2 7.8c-.4-.8-.9-1.4-1.6-1.7-.9-.5-2.4-.7-4.5-.7-.1 0-2 .1-5.7.2v30.5c0 2.4.3 4.1.9 5.1.6 1 1.4 1.9 2.6 2.6h-13c1.2-.6 1.9-1.5 2.3-2.6.4-1.2.6-3.1.6-5.9V31.2c-1.6-.1-3.4-.2-5.3-.2-2.7 0-4.8.3-6.2 1-.6.3-1.4.8-2.3 1.5l2.4-7.8c.5.2 1.7.3 3.4.4H612c2.1-.1 3.4-.2 3.9-.4zM641.2 53.2h-16.6l-3.8 10.1c-.5 1.4-.8 2.5-.8 3.4 0 1.1.8 2.1 2.4 2.9h-12.1c1.2-.7 2.1-1.5 2.9-2.3.7-.8 1.2-1.6 1.6-2.4.3-.6.9-2 1.7-4.1l11.6-28.9c.5-1.2.8-2.2.8-3 0-1.1-.7-1.9-2-2.6h10.5l13.8 34.5c1.1 2.6 1.9 4.3 2.4 5.1 1.1 1.6 2.4 2.9 4 3.8H644c.8-.4 1.2-.7 1.5-.9.6-.5.9-1 .9-1.7 0-.5-.4-1.7-1.2-3.7l-4-10.2zm-1.7-4.3l-6.6-17.2-6.7 17.2h13.3z"/><g><path d="M184.2 18.3v-1.8c-.4.5-.8.9-1.3 1.2-1.1.7-2.4 1.1-3.9 1.1-1.6 0-2.9-.4-4-1.2-1-.7-1.6-1.7-1.9-3-.1-.5-.2-1.4-.2-2.6V4.2c0-1.2-.1-2-.3-2.5-.2-.4-.5-.7-.9-.9h5c-.5.2-.8.6-1 1-.2.5-.2 1.3-.2 2.4v7.7c0 .9.1 1.6.2 2.1.3.9.8 1.6 1.6 2.1.7.5 1.6.7 2.5.7 1.2 0 2.2-.3 3-1 .6-.4 1-1 1.2-1.5.1-.3.2-.8.2-1.4V4.2c0-1.2-.1-2-.3-2.5-.2-.4-.5-.7-.9-.9h5c-.5.2-.8.6-1 1-.2.5-.2 1.3-.2 2.4v10.7c0 1.2.1 2 .3 2.5.2.4.5.7.9.9h-3.8zM220.7 4.6v10.6c0 1 .1 1.6.4 2.1.2.4.6.8 1 1.1h-4.7c.5-.3.9-.7 1.1-1.2.2-.4.3-1 .3-1.9V3.9c0-1-.1-1.7-.4-2.1-.2-.4-.6-.8-1-1.1h3.9c.1.2.3.5.6 1l9.8 12.5V3.9c0-1-.1-1.7-.4-2.1-.2-.4-.6-.8-1-1.1h4.7c-.5.3-.9.7-1.1 1.2-.2.4-.3 1-.3 1.9V19c-1.4-.5-2.6-1.4-3.7-2.8l-9.2-11.6zM266.6 14.9V4.2c0-1.2-.1-2-.3-2.5-.2-.4-.5-.7-.9-.9h5c-.5.3-.8.6-1 1-.2.5-.2 1.3-.2 2.4v10.7c0 1.2.1 2 .3 2.5.2.4.5.7.9.9h-5c.5-.2.8-.6 1-1 .1-.5.2-1.3.2-2.4zM306.8 15.1l3.7-9.8c.5-1.4.8-2.4.8-3 0-.7-.3-1.2-1-1.5h4l-7 18.2c-1.1-.7-1.9-1.3-2.3-1.7-.3-.3-.5-.7-.7-1.2-.1-.1-.2-.5-.4-1.1l-3.6-9.7c-.7-1.8-1.1-2.9-1.3-3.2-.3-.5-.6-.9-1-1.3h3.9v.3c0 .3.2 1 .6 2.2l4.3 11.8zM344.4 9.7V16c1.1.2 2.2.3 3.3.3 1.3 0 2.4-.2 3.3-.5.6-.2 1.2-.6 1.8-1l-1.2 3.5h-11c.5-.2.8-.6 1-1 .2-.5.2-1.3.2-2.4V4.2c0-1.2-.1-2-.3-2.5-.2-.4-.5-.7-.9-.9h8.8c.4 0 .7-.1 1-.2v3.1c-.4-.4-.8-.6-1.2-.8-.5-.2-1.2-.3-2.1-.3-1.1 0-2 .1-2.7.2v5h3.5c.3 0 .6-.1.9-.2v2.8c-.2-.3-.4-.4-.7-.5-.3-.1-.8-.2-1.4-.2h-2.3zM382.1 2.7v12.2c0 1.2.1 2 .3 2.5.2.4.5.7.9.9h-5c.5-.2.8-.6 1-1 .2-.5.2-1.3.2-2.4V4.2c0-1.2-.1-2-.3-2.5-.2-.4-.5-.7-.9-.9h6.1c1.7 0 3 .3 3.9 1 .6.4 1 .9 1.3 1.6.3.6.4 1.2.4 1.8 0 .9-.3 1.7-1 2.5-.8 1-1.9 1.7-3.3 2 .9 1.2 2.1 2.7 3.6 4.5 1.6 1.9 3.1 3.3 4.5 4-1.2.1-2.1.1-2.5.1-.8 0-1.6-.2-2.3-.7-1-.8-2.5-2.5-4.3-5.2-.7-1-1.4-2.1-2.1-3.3 3-.5 4.4-1.8 4.4-3.8 0-.9-.3-1.6-1-2.2-.6-.5-1.3-.8-2.2-.8-.4.2-1 .2-1.7.4zM430 1v3c-1.2-1.2-2.6-1.7-4.2-1.7-1.2 0-2.1.3-2.8.9-.5.4-.7 1-.7 1.6 0 .6.3 1.2.7 1.6l1.2.9c.5.3 1.2.6 1.9.9 1.9.9 3.2 1.6 3.9 2.1 1 .8 1.4 1.7 1.4 2.9 0 1.3-.5 2.5-1.6 3.6-1.4 1.3-3.2 1.9-5.5 1.9-1.6 0-3.1-.3-4.7-.8l-.8-3.3c1.7 1.4 3.7 2.1 5.8 2.1 1.2 0 2.2-.3 2.9-.9.7-.5 1-1.1 1-1.8s-.3-1.4-.9-1.9c-.4-.3-.8-.6-1.3-.8-.6-.3-1.3-.6-2.1-1-1.8-.8-3-1.5-3.7-2.1a4.1 4.1 0 0 1-1.4-3.1c0-.8.2-1.6.7-2.3.5-.8 1.4-1.4 2.5-1.8 1-.4 2.1-.5 3.4-.5 1.6-.1 2.9.1 4.3.5zM460.2 14.9V4.2c0-1.2-.1-2-.3-2.5-.2-.4-.5-.7-.9-.9h5c-.5.3-.8.6-1 1-.2.5-.2 1.3-.2 2.4v10.7c0 1.2.1 2 .3 2.5.2.4.5.7.9.9h-5c.5-.2.8-.6 1-1 .1-.5.2-1.3.2-2.4zM498.9 15.2c0 1 .1 1.6.4 2.1.2.4.6.8 1 1.1h-5.2c.5-.2.8-.6.9-1 .2-.5.2-1.3.2-2.4V3c-.7-.1-1.4-.1-2.1-.1-1.1 0-1.9.1-2.5.4-.2.1-.5.3-.9.6l1-3.1c.2.1.7.1 1.4.2h9.9c.8 0 1.3-.1 1.6-.2l-.9 3.1c-.2-.3-.4-.6-.7-.7-.4-.2-1-.3-1.8-.3 0 0-.8 0-2.3.1M539.8 10.6v4.5c0 1 .1 1.7.3 2.1.2.3.5.7 1 1.1H536c.5-.3.7-.7.9-1 .2-.5.2-1.3.2-2.4v-4.2l-4.6-7.3c-.5-.8-.9-1.3-1.2-1.6-.3-.2-.6-.5-1.2-.8l2.7-.1h.3c.4 0 .7.1.9.2.2.1.4.5.8 1.1l4 6.5 3.3-5.1c.3-.5.5-.9.5-1.3 0-.3-.2-.6-.5-1-.1-.1-.3-.3-.5-.4h4.6l-6.4 9.7zM599 .4c1.6 0 3.1.4 4.6 1.1 1.7.9 3 2.2 3.9 4 .6 1.3.9 2.6.9 4 0 1.9-.6 3.7-1.7 5.3-1 1.4-2.4 2.5-4.1 3.2-1.2.5-2.6.8-4 .8-2.3 0-4.3-.7-6-2-1.3-1-2.2-2.2-2.9-3.6-.5-1.1-.7-2.3-.7-3.5 0-1.7.5-3.4 1.4-4.9.9-1.5 2.2-2.6 3.9-3.3 1.5-.8 3.1-1.1 4.7-1.1zm-.3 1.9c-1.3 0-2.5.3-3.6 1-1 .6-1.8 1.6-2.4 2.7-.4 1-.6 2-.6 3.1 0 1.4.4 2.8 1.1 4.1 1.3 2.3 3.2 3.5 5.7 3.5 2.1 0 3.8-.7 5.1-2.2 1.1-1.3 1.6-2.8 1.6-4.8 0-2.1-.6-3.8-1.8-5.3-1.4-1.3-3.1-2.1-5.1-2.1zM631.6 9.7v5.1c0 1.2.1 2 .3 2.5.2.4.5.7.9.9h-5c.5-.2.8-.6 1-1 .2-.5.2-1.3.2-2.4V4.2c0-1.2-.1-2-.3-2.5-.2-.4-.5-.7-.9-.9h8.8c.4 0 .7-.1 1-.2v3.1c-.4-.4-.8-.6-1.2-.8-.5-.2-1.2-.3-2.1-.3-1.1 0-2.1.1-2.8.2v5h3.5c.3 0 .6-.1.9-.2v2.8c-.2-.3-.4-.4-.7-.5-.4-.1-.8-.2-1.4-.2h-2.2z"/></g><path fill="#f37021" d="M130.6 30.9s5 2.8 7 8.6c1 3.4.5 6.6-.6 8.9-.2.5-.5 1-.8 1.5-1.2 2-2.9 3.7-4.4 4.8-2.3 1.8-4.4 2.6-6.8 3.5-1.3.5-2.5.7-4.2 1.3.6-1.3 1.7-2.9 2.5-3.9.5-.6 1-1.1 1.5-1.7 1.3-1.4 2.6-3 3.3-4.3 1.4-2.4 2.7-4.8 3.4-9.1.2-1.1.2-2.4.2-3.5-.1-3.3-1.1-6.1-1.1-6.1z"/><path fill="#f37021" d="M117.7 67.4c-1.1-1.2-2.6-3.1-3.4-4.7-1.2-2.2-2.1-4.8-2.5-7.6-.3-2.5-.2-5.1.5-7.3 1.5-4.7 5.5-7.5 7.9-11.8 1-1.8 1.6-3.8 1.9-5.9.2-2-.2-4.2-1.1-6.2-.3-.7-.7-1.5-1.2-2.2 0 0 1.5.7 3 2 .7.5 1.4 1.2 2.1 2 .3.4 3.1 3.8 4 8.6.2 1.2.3 2.3.4 3.3.1 5-1.7 9.1-3.2 11.2-.7.9-1.3 1.9-2.1 2.7-1.4 1.6-3 3-5.2 6.6-.2.4-.6 1.2-.7 1.6-.3.9-.6 1.7-.7 2.5-.3 1.5-.1 2.8 0 3.7 0 .9.3 1.5.3 1.5z"/><path fill="#00AA4F" d="M158.2 33.3c0 10.5-3.9 19.1-11.7 26-5.1 4.5-10.9 7-17.4 7.7-2 .2-4.4.3-6.1.3l-2.5-.1s-.6-.8-.6-2.8c.1-2.1.6-3.2.6-3.2.4.1 1 0 1 0 3.4-.2 10.9-2.9 14.9-5.6 7-4.9 10.5-11.9 10.5-21.3 0-5-1.1-9.7-3.3-14-4.5-8.9-12.6-13.4-24.5-13.4-2.8 0-8.3.6-11.8 1.4v62.8c-5.4-1.8-10.1-5.4-14.2-10.8L58.8 16.6v38c0 4.6.4 7.8 1.1 9.7.6 1.5 1.8 2.6 3.5 3.5H48.8v-7.1c-1.5 1.9-3.2 3.5-5.2 4.7-4.5 2.7-9.5 4.1-15.1 4.1-6.2 0-11.4-1.5-15.7-4.6-3.9-2.9-6.4-6.8-7.5-11.7-.4-2-.7-5.4-.7-10.1V13.2c0-4.6-.4-7.8-1.1-9.6C2.8 2.1 1.7.9 0 0h19.5c-1.8.9-3 2.3-3.7 4-.6 1.9-.9 4.9-.9 9.2v29.9c0 3.6.3 6.3.8 8 1.1 3.4 3.1 6.1 6 8 2.9 1.8 6.2 2.8 9.9 2.8 4.5 0 8.4-1.3 11.7-3.9 2.2-1.7 3.7-3.7 4.5-5.9.5-1.3.7-3.1.7-5.4V13.2c0-4.6-.4-7.8-1.1-9.6-.6-1.5-1.8-2.6-3.5-3.5h15.4c.3.7 1.1 2 2.5 3.8L97.1 49V12.2c0-3.8-.5-7.8-1.4-9.3-1-1.6-1.4-1.7-3.1-2.8H120c6.7 0 12.2.8 16.5 2.5 7 2.7 12.4 6.9 16.3 12.5 3.6 5.2 5.4 11.3 5.4 18.2z"/></symbol><symbol id="svgstore--mail" viewBox="0 0 25 19"><path d="M0 19h24.7V0H0v19zM1.5 3.9V1.5h21.7v2.4l-10.9 9-10.8-9zm15.8 6.8l6-4.9v10.7l-6-5.8zM1.5 5.8l6 4.9-6 5.8V5.8zm14.6 5.8l6 5.9H2.6l6-5.9 3.8 3.1 3.7-3.1z"/></symbol><symbol id="svgstore--menu" viewBox="289 31 25 19"><g fill-rule="evenodd"><path d="M289 47h25v3h-25zM289 39h25v3h-25zM289 31h25v3h-25z"/></g></symbol><symbol id="svgstore--minus" viewBox="0 0 17 3"><path d="M9.5.5H.4v2h16.2v-2z"/></symbol><symbol id="svgstore--notification" viewBox="0 0 48 48"><path d="M22 11.9h4V28h-4zM22 31.9h4v4h-4z"/><path d="M24 6.1c9.9 0 17.9 8 17.9 17.9s-8 17.9-17.9 17.9S6.1 33.9 6.1 24 14.1 6.1 24 6.1m0-4C11.9 2.1 2.1 11.9 2.1 24S11.9 45.9 24 45.9 45.9 36.1 45.9 24 36.1 2.1 24 2.1z"/></symbol><symbol id="svgstore--open" viewBox="0 0 18 18"><path d="M17 17H1V1h7v2H3v12h12v-5h2z"/><path d="M10 1v2h3.6l-7.3 7.3 1.4 1.4L15 4.4V8h2V1z"/></symbol><symbol id="svgstore--play" viewBox="0 0 45 51"><path d="M3.3 50.6c.5 0 1.1-.2 1.6-.5L42.6 28c.9-.6 1.6-1.6 1.6-2.7s-.6-2.2-1.6-2.7L4.9.7C4 0 2.7 0 1.8.7.8 1.3.2 2.2.2 3.4v44.1c0 1.1.6 2.2 1.6 2.7.4.2 1.1.4 1.5.4z"/></symbol><symbol id="svgstore--plus" viewBox="0 0 25 25"><path d="M14 11V0h-3v11H0v3h11v11h3V14h11v-3H14z"/></symbol><symbol id="svgstore--print" viewBox="0 0 27 23"><path d="M26.2 3.7h-4.6V1c0-.4-.3-.7-.7-.7H6.1c-.4 0-.7.3-.7.7v2.8H.8c-.4-.1-.7.2-.7.6v9.7c0 .4.3.7.7.7h4.7v6.5c0 .4.3.7.7.7h14.6c.4 0 .7-.3.7-.7v-6.5h4.7c.4 0 .7-.3.7-.7V4.4c0-.4-.3-.7-.7-.7zm-19.4-2h13.4v2.1H6.8V1.7zm13.3 19H6.9v-10h13.2v10zm5.4-7.2h-4V10c0-.4-.3-.7-.7-.7H6.2c-.4 0-.7.3-.7.7v3.4h-4V5.1h24v8.4zM9.4 14.7h8.3c.4 0 .7-.3.7-.7s-.3-.7-.7-.7H9.4c-.4 0-.7.3-.7.7s.3.7.7.7zm0 3.4h8.3c.4 0 .7-.3.7-.7s-.3-.7-.7-.7H9.4c-.4 0-.7.3-.7.7s.3.7.7.7z"/></symbol><symbol id="svgstore--search" viewBox="0 0 26 26"><path d="M8.5 16c-2.7-3.7-2.4-8.9 1-12.3a9.476 9.476 0 0 1 13.4 13.4c-3.3 3.3-8.6 3.7-12.3 1L2.8 26 .7 23.9 8.5 16zm12.3-1c2.5-2.5 2.5-6.7 0-9.2s-6.7-2.5-9.2 0-2.5 6.7 0 9.2 6.7 2.6 9.2 0z"/></symbol><symbol id="svgstore--share" viewBox="0 0 22 27"><path d="M16.8 9.6c2.6 0 4.8-2.1 4.8-4.8S19.5 0 16.8 0C14.2 0 12 2.1 12 4.8c0 .3 0 .7.1 1l-5.8 4c-.6-.4-1.4-.6-2.1-.6-2.3 0-4.1 1.9-4.1 4.1 0 2.3 1.9 4.1 4.1 4.1 1.2 0 2.2-.5 3-1.3l.1.1 5.3 3.5c-.3.7-.5 1.4-.5 2.2 0 2.6 2.1 4.8 4.8 4.8 2.6 0 4.8-2.1 4.8-4.8s-2.1-4.8-4.8-4.8c-1.2 0-2.3.5-3.1 1.2l-5.4-3.6c-.1 0-.1-.1-.2-.1.2-.4.3-.9.3-1.4 0-.8-.3-1.6-.7-2.2L13 7.4c.7 1.3 2.1 2.2 3.8 2.2"/></symbol><symbol id="svgstore--shopping-cart" viewBox="0 0 36 36"><circle cx="13" cy="32" r="2"/><circle cx="27" cy="32" r="2"/><path d="M32.9 25l1.2-16H11v2h20.9l-.8 12H9.9l-3-21H2v2h3.1L8 24.1V29h24v-2H10v-2z"/></symbol><symbol id="svgstore--slashes-bottom" viewBox="0 0 537.8 44.8"><path d="M249.8 44.8L281.2 0h6.7l-31.3 44.8zM19.2 44.8L50.6 0h6.7L25.9 44.8zM134.5 44.8L165.9 0h6.7l-31.4 44.8zM211.4 44.8L242.8 0h6.7l-31.4 44.8zM96 44.8L127.4 0h6.7l-31.4 44.8zM173.1 44.8L204.5 0h6.7l-31.4 44.8zM57.7 44.8L89.1 0h6.7L64.4 44.8zM230.6 44.8L262 0h6.7l-31.4 44.8zM0 44.8L31.4 0h6.7L6.7 44.8zM115.2 44.8L146.6 0h6.8L122 44.8zM192.1 44.8L223.5 0h6.8l-31.4 44.8zM76.8 44.8L108.2 0h6.7L83.5 44.8zM153.8 44.8L185.2 0h6.8l-31.4 44.8zM38.5 44.8L69.9 0h6.7L45.2 44.8z"/><g><path d="M499.6 44.8L531 0h6.8l-31.4 44.8zM269 44.8L300.4 0h6.7l-31.3 44.8zM384.3 44.8L415.7 0h6.7L391 44.8zM461.2 44.8L492.6 0h6.7l-31.4 44.8zM345.8 44.8L377.2 0h6.7l-31.3 44.8zM422.9 44.8L454.3 0h6.7l-31.4 44.8zM307.5 44.8L338.9 0h6.7l-31.3 44.8zM480.4 44.8L511.8 0h6.7l-31.3 44.8zM365.1 44.8L396.5 0h6.7l-31.4 44.8zM442 44.8L473.4 0h6.7l-31.4 44.8zM326.6 44.8L358 0h6.7l-31.4 44.8zM403.7 44.8L435.1 0h6.7l-31.4 44.8zM288.3 44.8L319.7 0h6.7L295 44.8z"/></g></symbol><symbol id="svgstore--slashes-top" viewBox="0 0 537.8 44.8"><path d="M287.9 44.8L256.5 0h-6.7l31.4 44.8zM518.5 44.8L487.2 0h-6.8l31.4 44.8zM403.3 44.8L371.9 0h-6.7l31.4 44.8zM326.4 44.8L295 0h-6.7l31.4 44.8zM441.8 44.8L410.4 0h-6.8L435 44.8zM364.7 44.8L333.3 0h-6.7L358 44.8zM480.1 44.8L448.7 0h-6.8l31.4 44.8zM307.1 44.8L275.8 0H269l31.4 44.8zM537.8 44.8L506.4 0h-6.8L531 44.8zM422.5 44.8L391.1 0h-6.7l31.4 44.8zM345.6 44.8L314.2 0h-6.7l31.4 44.8zM461 44.8L429.6 0h-6.7l31.3 44.8zM383.9 44.8L352.5 0h-6.7l31.4 44.8zM499.3 44.8L467.9 0h-6.7l31.3 44.8z"/><g><path d="M38.1 44.8L6.7 0H0l31.4 44.8zM268.7 44.8L237.3 0h-6.7L262 44.8zM153.5 44.8L122.1 0h-6.7l31.3 44.8zM76.6 44.8L45.2 0h-6.7l31.3 44.8zM191.9 44.8L160.5 0h-6.7l31.4 44.8zM114.9 44.8L83.5 0h-6.7l31.3 44.8zM230.2 44.8L198.8 0h-6.7l31.4 44.8zM57.3 44.8L25.9 0h-6.7l31.4 44.8zM172.7 44.8L141.3 0h-6.7L166 44.8zM95.8 44.8L64.4 0h-6.7l31.4 44.8zM211.1 44.8L179.8 0H173l31.4 44.8zM134.1 44.8L102.7 0H96l31.4 44.8zM249.4 44.8L218.1 0h-6.8l31.4 44.8z"/></g></symbol><symbol id="svgstore--social-facebook" viewBox="0 0 320 512"><path fill="currentColor" d="M279.14 288l14.22-92.66h-88.91v-60.13c0-25.35 12.42-50.06 52.24-50.06h40.42V6.26S260.43 0 225.36 0c-73.22 0-121.08 44.38-121.08 124.72v70.62H22.89V288h81.39v224h100.17V288z"/></symbol><symbol id="svgstore--social-google-plus" viewBox="0 0 28 28"><path d="M24.8 14.4h-2v2h-2v-2h-2v-1.8h2v-2h2v2h2v1.8zm-9.4 3.4c-1.7 2.4-5 3.1-7.7 2.1s-4.6-3.8-4.3-6.7c0-3.5 3.2-6.6 6.9-6.4 1.5-.1 3.1.7 4.5 1.7-.7.5-1.2 1.2-1.8 1.7-1.5-1.1-3.8-1.4-5.3-.1-2.2 1.5-2.4 5-.3 6.7 2.1 1.8 6 1 6.6-2h-3.9v-2.4h6.6c0 2-.2 3.8-1.3 5.4zM28 26.3V1.5c.1-.7-.6-1.5-1.4-1.5H1C.4.3 0 1 0 1.7v24.6c-.1.8.7 1.7 1.7 1.7h24.8c.8.1 1.6-.7 1.5-1.7z" fill-rule="evenodd" clip-rule="evenodd"/></symbol><symbol id="svgstore--social-instagram" viewBox="0 0 28 28"><path d="M13.9 6.9c-3.9 0-7.1 3.2-7.1 7.1s3.2 7.1 7.1 7.1S21 17.9 21 14s-3.2-7.1-7.1-7.1zm0 11.7c-2.5 0-4.6-2.1-4.6-4.6s2.1-4.6 4.6-4.6 4.6 2.1 4.6 4.6-2.1 4.6-4.6 4.6zm9.1-12c0 1-.7 1.7-1.7 1.7s-1.7-.7-1.7-1.7.7-1.7 1.7-1.7 1.7.7 1.7 1.7zm4.7 1.7c0-1.5-.3-2.5-.7-3.3-.4-1-.8-1.7-1.7-2.5S23.8 1.2 22.8.8c-.8-.3-2-.6-3.3-.7h-5.6c-3.8 0-4.3 0-5.7.1-1.5 0-2.5.3-3.3.7-1 .3-1.8.7-2.5 1.5-.9.7-1.3 1.6-1.7 2.5-.3.9-.6 1.9-.6 3.4C0 9.7 0 10.2 0 14s0 4.3.1 5.7c0 1.5.3 2.5.7 3.3.4 1 .8 1.7 1.7 2.5.8.9 1.5 1.3 2.5 1.7.8.3 2 .6 3.3.7h5.6c3.8 0 4.3 0 5.7-.1 1.5 0 2.5-.3 3.3-.7 1-.4 1.7-.8 2.5-1.7.8-.8 1.3-1.5 1.7-2.5.3-.8.6-2 .7-3.3 0-1.5.1-2 .1-5.7s0-4.2-.2-5.6zm-2.5 11.3c0 1.4-.3 2.1-.4 2.6-.3.7-.6 1.1-1 1.5-.4.4-1 .8-1.5 1-.6.1-1.3.4-2.6.4-1.5 0-2 .1-5.6.1-3.8 0-4.2 0-5.6-.1-1.4 0-2.1-.3-2.6-.4-.8-.1-1.3-.4-1.7-1-.4-.4-.8-1-1-1.5-.3-.6-.6-1.3-.6-2.6 0-1.5-.1-2-.1-5.6s0-4.2.1-5.6c0-1.4.3-2.1.4-2.6.3-.7.6-1.1 1.1-1.5.4-.4 1-.8 1.5-1 .7-.3 1.4-.6 2.8-.6 1.5 0 2-.1 5.6-.1 3.8 0 4.2 0 5.6.1 1.4 0 2.1.3 2.6.4.7.3 1.1.6 1.5 1.1.4.4.8 1 1 1.5.3.6.6 1.3.6 2.6 0 1.5.1 2 .1 5.6s0 4.3-.2 5.7z"/></symbol><symbol id="svgstore--social-linkedin" viewBox="0 0 28 28"><path d="M1.2 9h5.3v19H1.2V9zm2.5-2.4C1.8 6.6.6 5.1.6 3.4.6 1.5 1.8 0 3.8 0c1.9 0 3.1 1.5 3.1 3.2 0 2-1.2 3.4-3.2 3.4zM27.4 28h-5.9v-9.9c0-2.6-.9-4.4-3-4.4-1.6 0-2.5 1.2-2.8 2.4-.1.4-.1 1-.1 1.6V28h-6s.1-17.5 0-19h5.9v3c.3-1.3 2.2-3.1 5.3-3.1 3.7 0 6.6 2.7 6.6 8.6V28z"/></symbol><symbol id="svgstore--social-snapchat" viewBox="0 0 28 28"><path d="M14.2 27.1H14h-.1c-1.7 0-2.7-.8-3.8-1.5-.7-.5-1.4-1-2.2-1.1-.4-.1-.8-.1-1.1-.1-.5 0-1.1.1-1.6.2-.2 0-.4.1-.6.1-.2 0-.3 0-.4-.3-.1-.2-.1-.4-.2-.6-.1-.5-.2-.9-.4-.9-2.6-.4-3.4-1-3.6-1.4v-.2c0-.2.1-.3.2-.3 4-.7 5.9-4.8 5.9-5 .2-.5.3-.9.1-1.3-.3-.7-1.2-.9-1.8-1.1-.1 0-.3-.1-.4-.1-1.2-.5-1.3-1-1.2-1.2.2-.4.7-.7 1.2-.7.1 0 .2 0 .3.1.5.3 1 .4 1.4.4.6 0 .8-.2.9-.3 0-.3 0-.6-.1-.9 0-1.9-.2-4.3.4-5.7C8.7 1.1 12.6.8 13.7.8h.6c1.1 0 5 .3 6.8 4.4.6 1.4.5 3.7.3 5.6v.9s.3.3.8.3c.4 0 .9-.1 1.4-.4.1-.1.3-.1.4-.1.2 0 .3 0 .5.1.4.1.7.4.7.7 0 .3-.2.7-1.3 1.1-.1 0-.2.1-.4.1-.6.2-1.5.5-1.8 1.1-.2.4-.1.8.1 1.3.1.2 1.9 4.3 5.9 5 .1 0 .3.2.2.3v.2c-.2.4-.9.9-3.6 1.4-.2 0-.3.3-.4.9 0 .2-.1.4-.2.6 0 .2-.2.3-.4.3s-.4 0-.6-.1c-.5-.1-1-.2-1.6-.2-.4 0-.8 0-1.1.1-.8.1-1.5.6-2.2 1.1-.9.9-2 1.6-3.6 1.6z"/></symbol><symbol id="svgstore--social-tiktok" viewBox="0 0 28 28"><path d="M24.8 6.5c-1.4-.3-2.7-1-3.6-2.1-1-1.2-1.7-2.8-1.7-4.4h-4.9v19.3c-.1 1.7-1.2 3.2-2.9 3.7s-3.5-.1-4.5-1.5l-.1-.1c.1 0 .1.1.1.1-.9-1.2-1-2.9-.3-4.2s2.1-2.2 3.6-2.2c.4 0 .8.1 1.2.2v-4.9c-.4-.1-.8-.1-1.2-.1h-.2c-3.5.1-6.6 2.2-8 5.5-.4 1-.7 2.1-.7 3.2s.2 2.2.5 3.2c.4 1 1 2 1.7 2.8.1.2.3.3.4.4.8.8 1.8 1.4 2.8 1.8s2.1.7 3.2.7 2.3-.1 3.3-.5h.1c3.4-1.3 5.6-4.6 5.6-8.2V9.3c2 1.4 4.3 2.1 6.7 2.1V6.7c-.1 0-.6-.1-1.1-.2z"/></symbol><symbol id="svgstore--social-twitter" viewBox="0 0 28 28"><path d="M25.2 7.7v.8c0 8.3-5.8 18-16.4 18-3.3 0-6.3-1-8.8-2.8.5 0 .9.1 1.4.1 2.7 0 5.1-1 7.2-2.7-2.5 0-4.7-1.9-5.3-4.4.3.1.7.1 1 .1.6 0 1-.1 1.5-.2-2.6-.6-4.6-3.2-4.6-6.1v-.1c.7.3 1.6.6 2.6.6-1.6-1.1-2.7-3-2.7-5.2 0-1.1.2-2.3.8-3.2C4.8 6.5 9 9 13.8 9.2c-.1-.5-.1-.9-.1-1.4 0-3.5 2.6-6.4 5.7-6.4 1.7 0 3.2.8 4.2 2 1.4-.3 2.6-.9 3.6-1.6-.5 1.5-1.4 2.7-2.5 3.5 1.1 0 2.3-.3 3.3-.9-.8 1.3-1.7 2.4-2.8 3.3"/></symbol><symbol id="svgstore--social-youtube" viewBox="0 0 28 28"><path d="M11.1 17.7v-8l7.6 4-7.6 4zm16.7-9.4s-.2-2-1.2-2.8c-1.1-1.2-2.2-1.2-2.8-1.2C19.8 4 14 4 14 4s-5.8 0-9.8.2c-.6.2-1.7.2-2.8 1.3C.6 6.3.2 8.3.2 8.3S0 10.6 0 12.9V15c0 2.3.2 4.6.2 4.6s.2 2 1.2 2.8c1.1 1.2 2.5 1.1 3 1.2 2.4.3 9.6.4 9.6.4s5.8 0 9.8-.3c.6-.1 1.7-.1 2.8-1.2.8-.8 1.2-2.8 1.2-2.8s.2-2.4.2-4.7v-2.1c0-2.3-.2-4.6-.2-4.6z"/></symbol><symbol id="svgstore--star" viewBox="0 0 512 512"><path d="M512 197.816l-186.039-12.231L255.898 9.569l-70.063 176.016L0 197.816l142.534 121.026-46.772 183.589L255.898 401.21l160.137 101.221-46.772-183.589z"/></symbol><symbol id="svgstore--tag" viewBox="0 0 17 10"><path d="M17 0v10H5L0 5.178 5 0h12zM6 3a2 2 0 1 0 0 4 2 2 0 0 0 0-4z" fill="#000" fill-rule="evenodd"/></symbol><symbol id="svgstore--transfer" viewBox="0 0 18 18"><path d="M17 5l-5-3v2H1v2h11v2zm0 7H5v-2l-4 3 4 3v-2h12z"/></symbol><symbol id="svgstore--user" viewBox="0 0 28 28"><path d="M12.6 10.5l7.8-7.8L18.3.6l-7.8 7.8L2.7.6.6 2.7l7.8 7.8-7.8 7.8 2.1 2.1 7.8-7.8 7.8 7.8 2.1-2.1-7.8-7.8z"/></symbol><symbol id="svgstore--warning" viewBox="0 0 48 48"><path d="M24 11.2L32.5 26 41 40.8H6.9L15.5 26 24 11.2m0-8L12 24 0 44.8h48L36 24 24 3.2z"/><path d="M26 19h-4v12h4V19zM26 34h-4v4h4v-4z"/></symbol></svg>