<?xml version="1.0" encoding="utf-8"?>
<!-- Generator: Adobe Illustrator 21.1.0, SVG Export Plug-In . SVG Version: 6.00 Build 0)  -->
<svg version="1.1" id="Layer_1" xmlns="http://www.w3.org/2000/svg" xmlns:xlink="http://www.w3.org/1999/xlink" x="0px" y="0px"
	 viewBox="0 0 657.5 71.6" style="enable-background:new 0 0 657.5 71.6;" xml:space="preserve">
<g>
	<g>
		<g>
			<path d="M177.6,35.4v26.3c0,2.4,0.3,4.1,0.9,5.1c0.6,1,1.5,1.9,2.6,2.6h-11.8c1.2-0.8,2.1-1.7,2.7-2.9
				c0.5-1,0.7-2.6,0.7-4.8V33.9c0-2.4-0.3-4.1-0.9-5.1c-0.6-1-1.5-1.9-2.6-2.6h9.7c0.2,0.4,0.7,1.3,1.6,2.4l24.4,31.1V33.9
				c0-2.4-0.3-4.1-0.9-5.1c-0.6-1-1.5-1.9-2.6-2.6h11.8c-1.2,0.8-2.1,1.7-2.7,2.9c-0.5,0.9-0.7,2.5-0.7,4.8v37.8
				c-3.5-1.2-6.5-3.5-9.1-6.9L177.6,35.4z"/>
			<path d="M242.2,25c4,0,7.8,0.9,11.4,2.7c4.3,2.2,7.6,5.5,9.7,9.8c1.6,3.2,2.3,6.5,2.3,10c0,4.7-1.4,9.1-4.3,13.1
				c-2.5,3.6-5.9,6.2-10.1,8c-3.1,1.3-6.4,2-10,2c-5.7,0-10.7-1.6-15-4.9c-3.2-2.4-5.6-5.4-7.2-9c-1.2-2.8-1.8-5.7-1.8-8.7
				c0-4.3,1.2-8.4,3.6-12.2c2.3-3.6,5.5-6.4,9.7-8.3C234.1,25.8,238,25,242.2,25z M241.3,29.7c-3.2,0-6.2,0.9-9,2.6
				c-2.6,1.6-4.6,3.9-5.9,6.8c-1.1,2.5-1.6,5.1-1.6,7.8c0,3.6,0.9,7,2.7,10.3c3.2,5.8,7.9,8.7,14.1,8.7c5.3,0,9.6-1.8,12.6-5.5
				c2.7-3.1,4-7.1,4-11.8c0-5.1-1.5-9.5-4.5-13.1C250.5,31.7,246.4,29.7,241.3,29.7z"/>
			<path d="M280.4,30.7v30.4c0,2.9,0.2,5,0.7,6.2c0.4,0.9,1.2,1.7,2.3,2.3h-12.5c1.2-0.6,1.9-1.5,2.4-2.6
				c0.4-1.2,0.6-3.2,0.6-5.9V34.6c0-2.9-0.2-5-0.7-6.2c-0.4-0.9-1.2-1.7-2.3-2.3h9.6c0.1,0,1.2,0,3.1-0.1c1.1,0,2-0.1,2.8-0.1
				c4.2,0,7.5,0.9,9.8,2.6c1.4,1,2.5,2.3,3.3,3.9c0.7,1.5,1.1,3,1.1,4.5c0,2.2-0.8,4.3-2.4,6.3c-2,2.5-4.8,4.1-8.3,5
				c2.2,3.1,5.2,6.8,8.9,11.2c4,4.8,7.8,8.1,11.3,10c-3.1,0.2-5.1,0.4-6.1,0.4c-2.1,0-4-0.6-5.6-1.9c-2.5-1.9-6.1-6.2-10.8-12.9
				c-1.8-2.6-3.6-5.3-5.3-8.2c7.3-1.3,11-4.4,11-9.5c0-2.2-0.8-4-2.4-5.4c-1.5-1.3-3.3-1.9-5.5-1.9
				C283.8,30.2,282.3,30.3,280.4,30.7z"/>
			<path d="M339.5,25.7l-2.2,7.8c-0.4-0.8-0.9-1.4-1.6-1.7c-0.9-0.5-2.4-0.7-4.5-0.7c-0.1,0-2,0.1-5.7,0.2v30.5
				c0,2.4,0.3,4.1,0.9,5.1c0.6,1,1.5,1.9,2.6,2.6h-13c1.2-0.6,1.9-1.5,2.3-2.6c0.4-1.2,0.6-3.1,0.6-5.9V31.2
				c-1.6-0.1-3.4-0.2-5.3-0.2c-2.7,0-4.8,0.3-6.2,1c-0.6,0.3-1.4,0.8-2.3,1.5l2.4-7.8c0.5,0.2,1.7,0.3,3.4,0.4h24.7
				C337.7,26,339,25.9,339.5,25.7z"/>
			<path d="M375.2,48.6h-23.8v12.4c0,2.9,0.2,5,0.7,6.2c0.4,0.9,1.2,1.7,2.3,2.3h-12.5c1.2-0.6,1.9-1.5,2.4-2.6
				c0.4-1.2,0.6-3.2,0.6-5.9V34.6c0-2.9-0.2-5-0.7-6.2c-0.4-0.9-1.2-1.7-2.3-2.3h12.5c-1.2,0.6-2,1.5-2.4,2.6
				c-0.4,1.2-0.6,3.2-0.6,5.9v9h23.8v-9c0-3-0.2-5-0.7-6.2c-0.4-0.9-1.2-1.7-2.2-2.3h12.5c-1.2,0.6-1.9,1.5-2.3,2.6
				c-0.4,1.2-0.6,3.2-0.6,5.9v26.5c0,3,0.2,5,0.7,6.2c0.4,0.9,1.1,1.7,2.2,2.3h-12.5c1.1-0.6,1.9-1.5,2.3-2.6
				c0.4-1.2,0.6-3.1,0.6-5.9V48.6z"/>
			<path d="M406.3,69.5c0.8-0.7,1.3-1.1,1.5-1.4c1-1,1.4-3.4,1.4-7.3V34.6c0-2.9-0.2-5-0.7-6.2
				c-0.4-0.9-1.2-1.7-2.2-2.3h6.6c1,0,2.4,0,4.4,0c2,0,3.7-0.1,5.1-0.1c4.3,0,7.8,0.5,10.6,1.6c4.5,1.7,7.9,4.4,10.4,8
				c2.3,3.4,3.5,7.4,3.5,11.8c0,6.7-2.5,12.3-7.5,16.6c-3.3,2.9-7,4.5-11.2,5c-3,0.3-6.8,0.5-11.3,0.5H406.3z M415.9,64.1
				c1.6,0.3,3.3,0.5,4.9,0.5c5.3,0,9.3-1,12.2-2.9c4.5-3.1,6.8-7.6,6.8-13.6c0-3.2-0.7-6.2-2.1-9c-2.9-5.7-8.1-8.6-15.7-8.6
				c-1.8,0-3.8,0.2-6,0.7V64.1z"/>
			<path d="M474.9,53.2h-16.6l-3.8,10.1c-0.5,1.4-0.8,2.5-0.8,3.4c0,1.1,0.8,2.1,2.4,2.9H444c1.2-0.7,2.1-1.5,2.9-2.3
				c0.7-0.8,1.2-1.6,1.6-2.4c0.3-0.6,0.9-2,1.7-4.1l11.6-28.9c0.5-1.2,0.8-2.2,0.8-3c0-1.1-0.7-1.9-2-2.6H471l13.8,34.5
				c1.1,2.6,1.9,4.3,2.4,5.1c1.1,1.6,2.4,2.9,4,3.8h-13.6c0.8-0.4,1.3-0.7,1.5-0.9c0.6-0.5,0.9-1,0.9-1.7c0-0.5-0.4-1.7-1.2-3.7
				L474.9,53.2z M473.2,48.9l-6.6-17.2l-6.7,17.2H473.2z"/>
			<path d="M505.8,34.6v26.5c0,2.9,0.2,5,0.7,6.2c0.4,0.9,1.2,1.7,2.3,2.3h-12.5c1.2-0.6,2-1.5,2.4-2.6
				c0.4-1.2,0.6-3.2,0.6-5.9V34.6c0-2.9-0.2-5-0.7-6.2c-0.4-0.9-1.2-1.7-2.3-2.3h12.5c-1.2,0.6-2,1.5-2.4,2.6
				C506,29.9,505.8,31.8,505.8,34.6z M506.9,46.9l9.1-12.1c2.2-2.9,3.3-4.9,3.3-5.9c0-1-0.7-2-2.1-2.8h11.9l-15.2,19.5l1.3,1.8
				c4.7,6.4,7.8,10.5,9.3,12.4c2,2.5,3.6,4.3,4.8,5.4c1.3,1.2,3.3,2.7,5.8,4.4c-1.9,0.2-4,0.3-6.3,0.3c-2.7,0-4.9-0.8-6.5-2.3
				c-1.3-1.2-4-4.8-8.2-10.7C510.5,51.8,508.1,48.5,506.9,46.9z"/>
			<path d="M556.3,25c4,0,7.8,0.9,11.4,2.7c4.3,2.2,7.6,5.5,9.7,9.8c1.6,3.2,2.3,6.5,2.3,10c0,4.7-1.4,9.1-4.3,13.1
				c-2.5,3.6-5.9,6.2-10.1,8c-3.1,1.3-6.4,2-10,2c-5.7,0-10.7-1.6-15-4.9c-3.2-2.4-5.6-5.4-7.2-9c-1.2-2.8-1.8-5.7-1.8-8.7
				c0-4.3,1.2-8.4,3.6-12.2c2.3-3.6,5.5-6.4,9.7-8.3C548.3,25.8,552.1,25,556.3,25z M555.4,29.7c-3.2,0-6.2,0.9-9,2.6
				c-2.6,1.6-4.6,3.9-5.9,6.8c-1.1,2.5-1.6,5.1-1.6,7.8c0,3.6,0.9,7,2.7,10.3c3.2,5.8,7.9,8.7,14.1,8.7c5.3,0,9.6-1.8,12.6-5.5
				c2.7-3.1,4-7.1,4-11.8c0-5.1-1.5-9.5-4.5-13.1C564.6,31.7,560.5,29.7,555.4,29.7z"/>
			<path d="M615.9,25.7l-2.2,7.8c-0.4-0.8-0.9-1.4-1.6-1.7c-0.9-0.5-2.4-0.7-4.5-0.7c-0.1,0-2,0.1-5.7,0.2v30.5
				c0,2.4,0.3,4.1,0.9,5.1c0.6,1,1.4,1.9,2.6,2.6h-13c1.2-0.6,1.9-1.5,2.3-2.6c0.4-1.2,0.6-3.1,0.6-5.9V31.2
				c-1.6-0.1-3.4-0.2-5.3-0.2c-2.7,0-4.8,0.3-6.2,1c-0.6,0.3-1.4,0.8-2.3,1.5l2.4-7.8c0.5,0.2,1.7,0.3,3.4,0.4h24.7
				C614.1,26,615.4,25.9,615.9,25.7z"/>
			<path d="M641.2,53.2h-16.6l-3.8,10.1c-0.5,1.4-0.8,2.5-0.8,3.4c0,1.1,0.8,2.1,2.4,2.9h-12.1c1.2-0.7,2.1-1.5,2.9-2.3
				c0.7-0.8,1.2-1.6,1.6-2.4c0.3-0.6,0.9-2,1.7-4.1l11.6-28.9c0.5-1.2,0.8-2.2,0.8-3c0-1.1-0.7-1.9-2-2.6h10.5l13.8,34.5
				c1.1,2.6,1.9,4.3,2.4,5.1c1.1,1.6,2.4,2.9,4,3.8h-13.6c0.8-0.4,1.2-0.7,1.5-0.9c0.6-0.5,0.9-1,0.9-1.7c0-0.5-0.4-1.7-1.2-3.7
				L641.2,53.2z M639.5,48.9l-6.6-17.2l-6.7,17.2H639.5z"/>
		</g>
		<g>
			<path d="M184.2,18.3v-1.8c-0.4,0.5-0.8,0.9-1.3,1.2c-1.1,0.7-2.4,1.1-3.9,1.1c-1.6,0-2.9-0.4-4-1.2
				c-1-0.7-1.6-1.7-1.9-3c-0.1-0.5-0.2-1.4-0.2-2.6V4.2c0-1.2-0.1-2-0.3-2.5c-0.2-0.4-0.5-0.7-0.9-0.9h5c-0.5,0.2-0.8,0.6-1,1
				c-0.2,0.5-0.2,1.3-0.2,2.4v7.7c0,0.9,0.1,1.6,0.2,2.1c0.3,0.9,0.8,1.6,1.6,2.1c0.7,0.5,1.6,0.7,2.5,0.7c1.2,0,2.2-0.3,3-1
				c0.6-0.4,1-1,1.2-1.5c0.1-0.3,0.2-0.8,0.2-1.4V4.2c0-1.2-0.1-2-0.3-2.5c-0.2-0.4-0.5-0.7-0.9-0.9h5c-0.5,0.2-0.8,0.6-1,1
				c-0.2,0.5-0.2,1.3-0.2,2.4v10.7c0,1.2,0.1,2,0.3,2.5c0.2,0.4,0.5,0.7,0.9,0.9H184.2z"/>
			<path d="M220.7,4.6v10.6c0,1,0.1,1.6,0.4,2.1c0.2,0.4,0.6,0.8,1,1.1h-4.7c0.5-0.3,0.9-0.7,1.1-1.2
				c0.2-0.4,0.3-1,0.3-1.9V3.9c0-1-0.1-1.7-0.4-2.1c-0.2-0.4-0.6-0.8-1-1.1h3.9c0.1,0.2,0.3,0.5,0.6,1l9.8,12.5V3.9
				c0-1-0.1-1.7-0.4-2.1c-0.2-0.4-0.6-0.8-1-1.1h4.7c-0.5,0.3-0.9,0.7-1.1,1.2c-0.2,0.4-0.3,1-0.3,1.9v15.2
				c-1.4-0.5-2.6-1.4-3.7-2.8L220.7,4.6z"/>
			<path d="M266.6,14.9V4.2c0-1.2-0.1-2-0.3-2.5c-0.2-0.4-0.5-0.7-0.9-0.9h5c-0.5,0.3-0.8,0.6-1,1
				c-0.2,0.5-0.2,1.3-0.2,2.4v10.7c0,1.2,0.1,2,0.3,2.5c0.2,0.4,0.5,0.7,0.9,0.9h-5c0.5-0.2,0.8-0.6,1-1
				C266.5,16.8,266.6,16,266.6,14.9z"/>
			<path d="M306.8,15.1l3.7-9.8c0.5-1.4,0.8-2.4,0.8-3c0-0.7-0.3-1.2-1-1.5h4L307.3,19c-1.1-0.7-1.9-1.3-2.3-1.7
				c-0.3-0.3-0.5-0.7-0.7-1.2c-0.1-0.1-0.2-0.5-0.4-1.1l-3.6-9.7c-0.7-1.8-1.1-2.9-1.3-3.2c-0.3-0.5-0.6-0.9-1-1.3h3.9
				c0,0.1,0,0.2,0,0.3c0,0.3,0.2,1,0.6,2.2L306.8,15.1z"/>
			<path d="M344.4,9.7v6.3c1.1,0.2,2.2,0.3,3.3,0.3c1.3,0,2.4-0.2,3.3-0.5c0.6-0.2,1.2-0.6,1.8-1l-1.2,3.5h-11
				c0.5-0.2,0.8-0.6,1-1c0.2-0.5,0.2-1.3,0.2-2.4V4.2c0-1.2-0.1-2-0.3-2.5c-0.2-0.4-0.5-0.7-0.9-0.9h8.8c0.4,0,0.7-0.1,1-0.2v3.1
				c-0.4-0.4-0.8-0.6-1.2-0.8c-0.5-0.2-1.2-0.3-2.1-0.3c-1.1,0-2,0.1-2.7,0.2v5h3.5c0.3,0,0.6-0.1,0.9-0.2v2.8
				c-0.2-0.3-0.4-0.4-0.7-0.5c-0.3-0.1-0.8-0.2-1.4-0.2H344.4z"/>
			<path d="M382.1,2.7v12.2c0,1.2,0.1,2,0.3,2.5c0.2,0.4,0.5,0.7,0.9,0.9h-5c0.5-0.2,0.8-0.6,1-1
				c0.2-0.5,0.2-1.3,0.2-2.4V4.2c0-1.2-0.1-2-0.3-2.5c-0.2-0.4-0.5-0.7-0.9-0.9h3.8c0.1,0,0.5,0,1.2,0c0.4,0,0.8,0,1.1,0
				c1.7,0,3,0.3,3.9,1c0.6,0.4,1,0.9,1.3,1.6c0.3,0.6,0.4,1.2,0.4,1.8c0,0.9-0.3,1.7-1,2.5c-0.8,1-1.9,1.7-3.3,2
				c0.9,1.2,2.1,2.7,3.6,4.5c1.6,1.9,3.1,3.3,4.5,4c-1.2,0.1-2.1,0.1-2.5,0.1c-0.8,0-1.6-0.2-2.3-0.7c-1-0.8-2.5-2.5-4.3-5.2
				c-0.7-1-1.4-2.1-2.1-3.3c3-0.5,4.4-1.8,4.4-3.8c0-0.9-0.3-1.6-1-2.2c-0.6-0.5-1.3-0.8-2.2-0.8C383.4,2.5,382.8,2.5,382.1,2.7z"/>
			<path d="M430,1v3c-1.2-1.2-2.6-1.7-4.2-1.7c-1.2,0-2.1,0.3-2.8,0.9c-0.5,0.4-0.7,1-0.7,1.6c0,0.6,0.3,1.2,0.7,1.6
				c0.4,0.3,0.8,0.6,1.2,0.9c0.5,0.3,1.2,0.6,1.9,0.9c1.9,0.9,3.2,1.6,3.9,2.1c1,0.8,1.4,1.7,1.4,2.9c0,1.3-0.5,2.5-1.6,3.6
				c-1.4,1.3-3.2,1.9-5.5,1.9c-1.6,0-3.1-0.3-4.7-0.8l-0.8-3.3c1.7,1.4,3.7,2.1,5.8,2.1c1.2,0,2.2-0.3,2.9-0.9c0.7-0.5,1-1.1,1-1.8
				c0-0.7-0.3-1.4-0.9-1.9c-0.4-0.3-0.8-0.6-1.3-0.8c-0.6-0.3-1.3-0.6-2.1-1c-1.8-0.8-3-1.5-3.7-2.1c-0.9-0.8-1.4-1.9-1.4-3.1
				c0-0.8,0.2-1.6,0.7-2.3c0.5-0.8,1.4-1.4,2.5-1.8c1-0.4,2.1-0.5,3.4-0.5C427.3,0.4,428.6,0.6,430,1z"/>
			<path d="M460.2,14.9V4.2c0-1.2-0.1-2-0.3-2.5c-0.2-0.4-0.5-0.7-0.9-0.9h5c-0.5,0.3-0.8,0.6-1,1
				c-0.2,0.5-0.2,1.3-0.2,2.4v10.7c0,1.2,0.1,2,0.3,2.5c0.2,0.4,0.5,0.7,0.9,0.9h-5c0.5-0.2,0.8-0.6,1-1
				C460.1,16.8,460.2,16,460.2,14.9z"/>
			<path d="M498.9,15.2c0,1,0.1,1.6,0.4,2.1c0.2,0.4,0.6,0.8,1,1.1h-5.2c0.5-0.2,0.8-0.6,0.9-1c0.2-0.5,0.2-1.3,0.2-2.4
				v-12c-0.7-0.1-1.4-0.1-2.1-0.1c-1.1,0-1.9,0.1-2.5,0.4c-0.2,0.1-0.5,0.3-0.9,0.6l1-3.1c0.2,0.1,0.7,0.1,1.4,0.2h9.9
				c0.8,0,1.3-0.1,1.6-0.2l-0.9,3.1c-0.2-0.3-0.4-0.6-0.7-0.7c-0.4-0.2-1-0.3-1.8-0.3c0,0-0.8,0-2.3,0.1"/>
			<path d="M539.8,10.6v4.5c0,1,0.1,1.7,0.3,2.1c0.2,0.3,0.5,0.7,1,1.1H536c0.5-0.3,0.7-0.7,0.9-1
				c0.2-0.5,0.2-1.3,0.2-2.4v-4.2l-4.6-7.3c-0.5-0.8-0.9-1.3-1.2-1.6c-0.3-0.2-0.6-0.5-1.2-0.8l2.7-0.1c0.1,0,0.2,0,0.3,0
				c0.4,0,0.7,0.1,0.9,0.2c0.2,0.1,0.4,0.5,0.8,1.1l4,6.5l3.3-5.1c0.3-0.5,0.5-0.9,0.5-1.3c0-0.3-0.2-0.6-0.5-1
				c-0.1-0.1-0.3-0.3-0.5-0.4h4.6L539.8,10.6z"/>
			<path d="M599,0.4c1.6,0,3.1,0.4,4.6,1.1c1.7,0.9,3,2.2,3.9,4c0.6,1.3,0.9,2.6,0.9,4c0,1.9-0.6,3.7-1.7,5.3
				c-1,1.4-2.4,2.5-4.1,3.2c-1.2,0.5-2.6,0.8-4,0.8c-2.3,0-4.3-0.7-6-2c-1.3-1-2.2-2.2-2.9-3.6c-0.5-1.1-0.7-2.3-0.7-3.5
				c0-1.7,0.5-3.4,1.4-4.9c0.9-1.5,2.2-2.6,3.9-3.3C595.8,0.7,597.4,0.4,599,0.4z M598.7,2.3c-1.3,0-2.5,0.3-3.6,1
				c-1,0.6-1.8,1.6-2.4,2.7c-0.4,1-0.6,2-0.6,3.1c0,1.4,0.4,2.8,1.1,4.1c1.3,2.3,3.2,3.5,5.7,3.5c2.1,0,3.8-0.7,5.1-2.2
				c1.1-1.3,1.6-2.8,1.6-4.8c0-2.1-0.6-3.8-1.8-5.3C602.4,3.1,600.7,2.3,598.7,2.3z"/>
			<path d="M631.6,9.7v5.1c0,1.2,0.1,2,0.3,2.5c0.2,0.4,0.5,0.7,0.9,0.9h-5c0.5-0.2,0.8-0.6,1-1
				c0.2-0.5,0.2-1.3,0.2-2.4V4.2c0-1.2-0.1-2-0.3-2.5c-0.2-0.4-0.5-0.7-0.9-0.9h8.8c0.4,0,0.7-0.1,1-0.2v3.1
				c-0.4-0.4-0.8-0.6-1.2-0.8c-0.5-0.2-1.2-0.3-2.1-0.3c-1.1,0-2.1,0.1-2.8,0.2v5h3.5c0.3,0,0.6-0.1,0.9-0.2v2.8
				c-0.2-0.3-0.4-0.4-0.7-0.5c-0.4-0.1-0.8-0.2-1.4-0.2H631.6z"/>
		</g>
		<path fill="#f37021" d="M130.6,30.9c0,0,5,2.8,7,8.6c1,3.4,0.5,6.6-0.6,8.9c-0.2,0.5-0.5,1-0.8,1.5c-1.2,2-2.9,3.7-4.4,4.8
			c-2.3,1.8-4.4,2.6-6.8,3.5c-1.3,0.5-2.5,0.7-4.2,1.3c0.6-1.3,1.7-2.9,2.5-3.9c0.5-0.6,1-1.1,1.5-1.7c1.3-1.4,2.6-3,3.3-4.3
			c1.4-2.4,2.7-4.8,3.4-9.1c0.2-1.1,0.2-2.4,0.2-3.5C131.6,33.7,130.6,30.9,130.6,30.9z"/>
		<path fill="#f37021" d="M117.7,67.4c-1.1-1.2-2.6-3.1-3.4-4.7c-1.2-2.2-2.1-4.8-2.5-7.6c-0.3-2.5-0.2-5.1,0.5-7.3
			c1.5-4.7,5.5-7.5,7.9-11.8c1-1.8,1.6-3.8,1.9-5.9c0.2-2-0.2-4.2-1.1-6.2c-0.3-0.7-0.7-1.5-1.2-2.2c0,0,1.5,0.7,3,2
			c0.7,0.5,1.4,1.2,2.1,2c0.3,0.4,3.1,3.8,4,8.6c0.2,1.2,0.3,2.3,0.4,3.3c0.1,5-1.7,9.1-3.2,11.2c-0.7,0.9-1.3,1.9-2.1,2.7
			c-1.4,1.6-3,3-5.2,6.6c-0.2,0.4-0.6,1.2-0.7,1.6c-0.3,0.9-0.6,1.7-0.7,2.5c-0.3,1.5-0.1,2.8,0,3.7
			C117.4,66.8,117.7,67.4,117.7,67.4z"/>
		<path fill="#00AA4F" d="M158.2,33.3c0,10.5-3.9,19.1-11.7,26c-5.1,4.5-10.9,7-17.4,7.7c-2,0.2-4.4,0.3-6.1,0.3l-2.5-0.1
			c0,0-0.6-0.8-0.6-2.8c0.1-2.1,0.6-3.2,0.6-3.2c0.4,0.1,1,0,1,0c3.4-0.2,10.9-2.9,14.9-5.6c7-4.9,10.5-11.9,10.5-21.3
			c0-5-1.1-9.7-3.3-14c-4.5-8.9-12.6-13.4-24.5-13.4c-2.8,0-8.3,0.6-11.8,1.4l0,62.8c-5.4-1.8-10.1-5.4-14.2-10.8L58.8,16.6v38
			c0,4.6,0.4,7.8,1.1,9.7c0.6,1.5,1.8,2.6,3.5,3.5H48.8v-7.1c-1.5,1.9-3.2,3.5-5.2,4.7c-4.5,2.7-9.5,4.1-15.1,4.1
			c-6.2,0-11.4-1.5-15.7-4.6C8.9,62,6.4,58.1,5.3,53.2c-0.4-2-0.7-5.4-0.7-10.1V13.2c0-4.6-0.4-7.8-1.1-9.6C2.8,2.1,1.7,0.9,0,0
			h19.5c-1.8,0.9-3,2.3-3.7,4c-0.6,1.9-0.9,4.9-0.9,9.2v29.9c0,3.6,0.3,6.3,0.8,8c1.1,3.4,3.1,6.1,6,8c2.9,1.8,6.2,2.8,9.9,2.8
			c4.5,0,8.4-1.3,11.7-3.9c2.2-1.7,3.7-3.7,4.5-5.9c0.5-1.3,0.7-3.1,0.7-5.4V13.2c0-4.6-0.4-7.8-1.1-9.6c-0.6-1.5-1.8-2.6-3.5-3.5
			l15.4,0c0.3,0.7,1.1,2,2.5,3.8l35.3,45.1V12.2c0-3.8-0.5-7.8-1.4-9.3c-1-1.6-1.4-1.7-3.1-2.8c0,0,25.2,0,27.4,0
			c6.7,0,12.2,0.8,16.5,2.5c7,2.7,12.4,6.9,16.3,12.5C156.4,20.3,158.2,26.4,158.2,33.3z"/>
	</g>
</g>
</svg>
