
<svg width="87px" height="39px" viewBox="0 0 87 39" version="1.1" xmlns="http://www.w3.org/2000/svg" xmlns:xlink="http://www.w3.org/1999/xlink">
    <!-- Generator: Sketch 47.1 (45422) - http://www.bohemiancoding.com/sketch -->
    <desc>Created with Sketch.</desc>
    <defs></defs>
    <g id="Page-1" stroke="none" stroke-width="1" fill="none" fill-rule="evenodd">
        <g id="StickyNav@2x" transform="translate(-87.000000, -15.000000)">
            <g id="UND" transform="translate(87.000000, 15.000000)">
                <path d="M87,18.2879138 C87,24.0443949 84.8678295,28.7887707 80.5928543,32.5327113 C77.7864713,34.9823454 74.5908741,36.3986562 71.0007456,36.7816436 C69.9181773,36.9078915 68.5835768,36.9291097 67.6211756,36.9206224 L66.2621163,36.8919779 C66.2621163,36.8919779 65.9590397,36.4273007 65.9441518,35.3356274 C65.9803083,34.1792389 66.2525455,33.5649737 66.2525455,33.5649737 C66.4843725,33.5957401 66.7885125,33.5883137 66.8087177,33.5872528 C68.6537629,33.5023802 72.8032538,32.023476 75.0013568,30.5233536 C78.870103,27.861538 80.8023493,23.9690705 80.8023493,18.8576208 C80.8023493,16.1130546 80.2047035,13.5499034 78.9998411,11.1639237 C76.5390718,6.25829004 72.053538,3.80865591 65.5326056,3.80865591 C63.983193,3.80865591 60.9768857,4.1576943 59.0712251,4.57250891 L59.0648446,39 C56.0861865,37.9931993 53.4903619,36.0220342 51.2709905,33.0812002 L32.3451859,9.08560703 L32.3451859,29.9207584 C32.3451859,32.4616305 32.5568078,34.2227361 32.9779247,35.2189277 C33.322475,36.0167297 33.9594676,36.662822 34.8889025,37.1455347 L26.8557773,37.1455347 L26.8557773,33.231849 C26.0188605,34.2948777 25.0692205,35.1531514 24.0047304,35.8151574 C21.5492782,37.313158 18.774798,38.0568537 15.6866069,38.0568537 C12.269817,38.0568537 9.39218443,37.2272245 7.06115315,35.5605397 C4.91834839,34.0243465 3.53057657,31.9004108 2.89890113,29.1929763 C2.65750327,28.0779631 2.53839948,26.2245586 2.53839948,23.6348848 L2.53839948,7.22159354 C2.53839948,4.68496504 2.32677757,2.91855499 1.91097774,1.92872882 C1.56111036,1.12562226 0.923054357,0.485895378 0,0 L10.7214678,0 C9.72716383,0.517722586 9.04763418,1.24868747 8.67968855,2.1865292 C8.35108971,3.21454803 8.18413172,4.89608553 8.18413172,7.22159354 L8.18413172,23.6348848 C8.18413172,25.6177199 8.32982117,27.0775278 8.62651722,28.0185523 C9.2039579,29.8783221 10.3109851,31.3423737 11.9475987,32.3979761 C13.5172165,33.4111422 15.3314224,33.9118903 17.3880896,33.9118903 C19.8499224,33.9118903 21.9916637,33.2021436 23.821821,31.7741628 C25.0415714,30.8161639 25.8689174,29.7372215 26.3049223,28.5373358 C26.5697156,27.8095536 26.6983902,26.8197274 26.6983902,25.5636136 L26.6983902,7.22159354 C26.6983902,4.68496504 26.4888951,2.91855499 26.0730953,1.92872882 C25.7221645,1.12562226 25.0862353,0.485895378 24.1621176,0 L32.6535796,0.0265226735 C32.8099033,0.409510079 33.2639865,1.10440412 34.0137023,2.11120481 L53.4180489,26.847311 L53.4180489,6.66780011 C53.395717,4.60009249 53.1681436,2.40507603 52.6289863,1.57862953 C52.0685605,0.723538533 51.8611923,0.635483257 50.8987911,0.0265226735 C50.8987911,0.0265226735 64.7499236,0 65.9484055,0 C69.6310521,0 72.6639449,0.446641821 75.049211,1.35159544 C78.8871179,2.83262153 81.8668394,5.11038873 83.9936928,8.19020157 C86.0025058,11.1310356 87,14.4972933 87,18.2879138" id="Fill-80" fill="#009A44"></path>
                <path d="M71.118521,16 C71.118521,16 73.6757837,17.5773426 74.7196663,20.8263432 C75.2451038,22.713734 74.9713968,24.5133139 74.3980106,25.8163832 C74.2751421,26.0971611 74.1382886,26.3703503 73.9894479,26.6337828 C73.3551269,27.7503896 72.5010411,28.6794498 71.7018965,29.3255641 C70.5381423,30.3456874 69.4443131,30.7966664 68.1716754,31.2704113 C67.4834121,31.5284233 66.8830548,31.6726065 66,32 C66.2856942,31.2639068 66.8610783,30.4009757 67.3016067,29.8199065 C67.5493415,29.4935971 67.8280432,29.1954739 68.0937588,28.8865099 C68.7880156,28.0788671 69.4163431,27.1790772 69.8139175,26.4885155 C70.5541252,25.170269 71.2284034,23.7913138 71.594012,21.4074124 C71.694904,20.8122502 71.7148826,20.0349617 71.6869126,19.4397994 C71.6269767,17.5469883 71.118521,16 71.118521,16" id="Fill-76" fill="#FF671F"></path>
                <path d="M65.080252,37 C64.5157105,36.3216532 63.7702009,35.2580318 63.3384348,34.3579601 C62.7335688,33.1011525 62.2595113,31.6193271 62.0785433,30.0354203 C61.9192127,28.6271372 61.9978945,27.1222612 62.3549129,25.8797231 C63.1181259,23.1992654 65.1618843,21.595601 66.3755503,19.1555283 C66.8692783,18.1391058 67.213511,16.9777937 67.3207149,15.8022122 C67.4190671,14.6782201 67.2371155,13.3917761 66.7660085,12.2699793 C66.5909416,11.8627517 66.3971878,11.4171064 66.1463897,11 C66.1463897,11 66.9194379,11.3786887 67.6915026,12.1141132 C68.0268836,12.4236501 68.3858691,12.8034365 68.7458381,13.2666442 C68.9051686,13.4708068 70.3479952,15.4421835 70.8033658,18.1259341 C70.9125368,18.7987926 70.9735151,19.4255499 70.9981032,20.0116942 C71.0472792,22.8359438 70.1306369,25.1629586 69.3703745,26.3802508 C69.0369605,26.9137079 68.6937114,27.4383839 68.3032532,27.9213493 C67.575447,28.821421 66.7620744,29.6128256 65.6339748,31.6884789 C65.5100511,31.9343522 65.3261325,32.3591421 65.2612201,32.5852577 C65.1176259,33.090176 64.9779658,33.5621649 64.9150204,33.9891502 C64.786179,34.867269 64.8432233,35.5642758 64.8983005,36.0713894 C64.9632129,36.675096 65.080252,36.9989024 65.080252,37" id="Fill-78" fill="#FF671F"></path>
            </g>
        </g>
    </g>
</svg>
