<svg xmlns="http://www.w3.org/2000/svg" viewBox="0 0 27 23">
<path d="M26.2,3.7h-4.6V1c0-0.4-0.3-0.7-0.7-0.7H6.1C5.7,0.3,5.4,0.6,5.4,1v2.8H0.8C0.4,3.7,0.1,4,0.1,4.4
	v9.7c0,0.4,0.3,0.7,0.7,0.7h4.7v6.5c0,0.4,0.3,0.7,0.7,0.7h14.6c0.4,0,0.7-0.3,0.7-0.7v-6.5h4.7c0.4,0,0.7-0.3,0.7-0.7V4.4
	C26.9,4,26.6,3.7,26.2,3.7z M6.8,1.7h13.4v2.1H6.8V1.7z M20.1,20.7H6.9v-10h13.2L20.1,20.7L20.1,20.7z M25.5,13.5h-4V10
	c0-0.4-0.3-0.7-0.7-0.7H6.2c-0.4,0-0.7,0.3-0.7,0.7v3.4h-4V5.1h24V13.5z M9.4,14.7h8.3c0.4,0,0.7-0.3,0.7-0.7s-0.3-0.7-0.7-0.7H9.4
	c-0.4,0-0.7,0.3-0.7,0.7S9,14.7,9.4,14.7z M9.4,18.1h8.3c0.4,0,0.7-0.3,0.7-0.7s-0.3-0.7-0.7-0.7H9.4c-0.4,0-0.7,0.3-0.7,0.7
	S9,18.1,9.4,18.1z"/>
</svg>
