<?xml version="1.0" encoding="utf-8"?>
<!-- Generator: Adobe Illustrator 24.0.0, SVG Export Plug-In . SVG Version: 6.00 Build 0)  -->
<svg version="1.1" id="share" xmlns="http://www.w3.org/2000/svg" xmlns:xlink="http://www.w3.org/1999/xlink" x="0px" y="0px"
	 viewBox="0 0 22 27" enable-background="new 0 0 22 27" xml:space="preserve">
<path id="share-object" d="M16.8,9.6c2.6,0,4.8-2.1,4.8-4.8S19.5,0,16.8,0C14.2,0,12,2.1,12,4.8c0,0.3,0,0.7,0.1,1l-5.8,4
	C5.7,9.4,4.9,9.2,4.2,9.2c-2.3,0-4.1,1.9-4.1,4.1c0,2.3,1.9,4.1,4.1,4.1c1.2,0,2.2-0.5,3-1.3l0.1,0.1l5.3,3.5
	c-0.3,0.7-0.5,1.4-0.5,2.2c0,2.6,2.1,4.8,4.8,4.8c2.6,0,4.8-2.1,4.8-4.8s-2.1-4.8-4.8-4.8c-1.2,0-2.3,0.5-3.1,1.2l-5.4-3.6
	c-0.1,0-0.1-0.1-0.2-0.1c0.2-0.4,0.3-0.9,0.3-1.4c0-0.8-0.3-1.6-0.7-2.2L13,7.4C13.7,8.7,15.1,9.6,16.8,9.6"/>
</svg>
