<?xml version="1.0" encoding="utf-8"?>
<!-- Generator: Adobe Illustrator 21.1.0, SVG Export Plug-In . SVG Version: 6.00 Build 0)  -->
<svg version="1.1" id="Layer_1" xmlns="http://www.w3.org/2000/svg" xmlns:xlink="http://www.w3.org/1999/xlink" x="0px" y="0px"
  viewBox="0 0 537.8 44.8" style="enable-background:new 0 0 537.8 44.8;" xml:space="preserve">
  <g>
   <g>
    <polygon points="249.8,44.8 281.2,0 287.9,0 287.9,0 256.6,44.8 		"/>
    <polygon points="19.2,44.8 50.6,0 57.3,0 57.3,0 25.9,44.8 		"/>
    <polygon points="134.5,44.8 165.9,0 172.6,0 172.6,0 141.2,44.8 		"/>
    <polygon points="211.4,44.8 242.8,0 249.5,0 249.5,0 218.1,44.8 		"/>
    <polygon points="96,44.8 127.4,0 134.1,0 134.1,0 102.7,44.8 		"/>
    <polygon points="173.1,44.8 204.5,0 211.2,0 211.2,0 179.8,44.8 		"/>
    <polygon points="57.7,44.8 89.1,0 95.8,0 95.8,0 64.4,44.8 		"/>
    <polygon points="230.6,44.8 262,0 268.7,0 268.7,0 237.3,44.8 		"/>
    <polygon points="0,44.8 31.4,0 38.1,0 38.1,0 6.7,44.8 		"/>
    <polygon points="115.2,44.8 146.6,0 153.3,0 153.4,0 122,44.8 		"/>
    <polygon points="192.1,44.8 223.5,0 230.2,0 230.3,0 198.9,44.8 		"/>
    <polygon points="76.8,44.8 108.2,0 114.9,0 114.9,0 83.5,44.8 		"/>
    <polygon points="153.8,44.8 185.2,0 191.9,0 192,0 160.6,44.8 		"/>
    <polygon points="38.5,44.8 69.9,0 76.6,0 76.6,0 45.2,44.8 		"/>
  </g>
  <g>
    <polygon points="499.6,44.8 531,0 537.7,0 537.8,0 506.4,44.8 		"/>
    <polygon points="269,44.8 300.4,0 307.1,0 307.1,0 275.8,44.8 		"/>
    <polygon points="384.3,44.8 415.7,0 422.4,0 422.4,0 391,44.8 		"/>
    <polygon points="461.2,44.8 492.6,0 499.3,0 499.3,0 467.9,44.8 		"/>
    <polygon points="345.8,44.8 377.2,0 383.9,0 383.9,0 352.6,44.8 		"/>
    <polygon points="422.9,44.8 454.3,0 461,0 461,0 429.6,44.8 		"/>
    <polygon points="307.5,44.8 338.9,0 345.6,0 345.6,0 314.3,44.8 		"/>
    <polygon points="480.4,44.8 511.8,0 518.5,0 518.5,0 487.2,44.8 		"/>
    <polygon points="365.1,44.8 396.5,0 403.2,0 403.2,0 371.8,44.8 		"/>
    <polygon points="442,44.8 473.4,0 480.1,0 480.1,0 448.7,44.8 		"/>
    <polygon points="326.6,44.8 358,0 364.7,0 364.7,0 333.3,44.8 		"/>
    <polygon points="403.7,44.8 435.1,0 441.8,0 441.8,0 410.4,44.8 		"/>
    <polygon points="288.3,44.8 319.7,0 326.4,0 326.4,0 295,44.8 		"/>
  </g>
</g>
</svg>
