<?xml version="1.0" encoding="utf-8"?>
<!-- Generator: Adobe Illustrator 23.1.0, SVG Export Plug-In . SVG Version: 6.00 Build 0)  -->
<svg version="1.1" id="Layer_1" xmlns="http://www.w3.org/2000/svg" xmlns:xlink="http://www.w3.org/1999/xlink" x="0px" y="0px"
	 viewBox="0 0 28 28" style="enable-background:new 0 0 28 28;" xml:space="preserve">
<path d="M13.9,6.9c-3.9,0-7.1,3.2-7.1,7.1s3.2,7.1,7.1,7.1S21,17.9,21,14S17.8,6.9,13.9,6.9z M13.9,18.6c-2.5,0-4.6-2.1-4.6-4.6
	s2.1-4.6,4.6-4.6s4.6,2.1,4.6,4.6S16.4,18.6,13.9,18.6z M23,6.6c0,1-0.7,1.7-1.7,1.7s-1.7-0.7-1.7-1.7s0.7-1.7,1.7-1.7
	C22.3,4.9,23,5.6,23,6.6z M27.7,8.3c0-1.5-0.3-2.5-0.7-3.3c-0.4-1-0.8-1.7-1.7-2.5s-1.5-1.3-2.5-1.7c-0.8-0.3-2-0.6-3.3-0.7
	c-1.3,0-1.8,0-5.6,0s-4.3,0-5.7,0.1c-1.5,0-2.5,0.3-3.3,0.7c-1,0.3-1.8,0.7-2.5,1.5C1.5,3.1,1.1,4,0.7,4.9C0.4,5.8,0.1,6.8,0.1,8.3
	C0,9.7,0,10.2,0,14s0,4.3,0.1,5.7c0,1.5,0.3,2.5,0.7,3.3c0.4,1,0.8,1.7,1.7,2.5C3.3,26.4,4,26.8,5,27.2c0.8,0.3,2,0.6,3.3,0.7
	c1.3,0,1.8,0,5.6,0s4.3,0,5.7-0.1c1.5,0,2.5-0.3,3.3-0.7c1-0.4,1.7-0.8,2.5-1.7c0.8-0.8,1.3-1.5,1.7-2.5c0.3-0.8,0.6-2,0.7-3.3
	c0-1.5,0.1-2,0.1-5.7C27.9,10.2,27.9,9.7,27.7,8.3z M25.2,19.6c0,1.4-0.3,2.1-0.4,2.6c-0.3,0.7-0.6,1.1-1,1.5c-0.4,0.4-1,0.8-1.5,1
	c-0.6,0.1-1.3,0.4-2.6,0.4c-1.5,0-2,0.1-5.6,0.1c-3.8,0-4.2,0-5.6-0.1c-1.4,0-2.1-0.3-2.6-0.4c-0.8-0.1-1.3-0.4-1.7-1
	c-0.4-0.4-0.8-1-1-1.5c-0.3-0.6-0.6-1.3-0.6-2.6c0-1.5-0.1-2-0.1-5.6s0-4.2,0.1-5.6c0-1.4,0.3-2.1,0.4-2.6c0.3-0.7,0.6-1.1,1.1-1.5
	c0.4-0.4,1-0.8,1.5-1C6.3,3,7,2.7,8.4,2.7c1.5,0,2-0.1,5.6-0.1c3.8,0,4.2,0,5.6,0.1c1.4,0,2.1,0.3,2.6,0.4c0.7,0.3,1.1,0.6,1.5,1.1
	c0.4,0.4,0.8,1,1,1.5c0.3,0.6,0.6,1.3,0.6,2.6c0,1.5,0.1,2,0.1,5.6S25.4,18.2,25.2,19.6z"/>
</svg>
