<?xml version="1.0" encoding="utf-8"?>
<!-- Generator: Adobe Illustrator 23.1.0, SVG Export Plug-In . SVG Version: 6.00 Build 0)  -->
<svg version="1.1" id="Layer_1" xmlns="http://www.w3.org/2000/svg" xmlns:xlink="http://www.w3.org/1999/xlink" x="0px" y="0px"
	 viewBox="0 0 28 28" style="enable-background:new 0 0 28 28;" xml:space="preserve">
<path d="M11.1,17.7v-8l7.6,4L11.1,17.7z M27.8,8.3c0,0-0.2-2-1.2-2.8c-1.1-1.2-2.2-1.2-2.8-1.2C19.8,4,14,4,14,4l0,0
	c0,0-5.8,0-9.8,0.2C3.6,4.4,2.5,4.4,1.4,5.5C0.6,6.3,0.2,8.3,0.2,8.3S0,10.6,0,12.9v2.1c0,2.3,0.2,4.6,0.2,4.6s0.2,2,1.2,2.8
	c1.1,1.2,2.5,1.1,3,1.2C6.8,23.9,14,24,14,24s5.8,0,9.8-0.3c0.6-0.1,1.7-0.1,2.8-1.2c0.8-0.8,1.2-2.8,1.2-2.8S28,17.3,28,15v-2.1
	C28,10.6,27.8,8.3,27.8,8.3L27.8,8.3z"/>
</svg>
