<?xml version="1.0" encoding="utf-8"?>
<!-- Generator: Adobe Illustrator 23.1.0, SVG Export Plug-In . SVG Version: 6.00 Build 0)  -->
<svg version="1.1" id="Layer_1" xmlns="http://www.w3.org/2000/svg" xmlns:xlink="http://www.w3.org/1999/xlink" x="0px" y="0px"
	 viewBox="0 0 28 28" style="enable-background:new 0 0 28 28;" xml:space="preserve">
<path d="M25.2,7.7c0,0.2,0,0.6,0,0.8c0,8.3-5.8,18-16.4,18c-3.3,0-6.3-1-8.8-2.8c0.5,0,0.9,0.1,1.4,0.1c2.7,0,5.1-1,7.2-2.7
	c-2.5,0-4.7-1.9-5.3-4.4c0.3,0.1,0.7,0.1,1,0.1c0.6,0,1-0.1,1.5-0.2c-2.6-0.6-4.6-3.2-4.6-6.1v-0.1C1.9,10.7,2.8,11,3.8,11
	C2.2,9.9,1.1,8,1.1,5.8c0-1.1,0.2-2.3,0.8-3.2C4.8,6.5,9,9,13.8,9.2c-0.1-0.5-0.1-0.9-0.1-1.4c0-3.5,2.6-6.4,5.7-6.4
	c1.7,0,3.2,0.8,4.2,2c1.4-0.3,2.6-0.9,3.6-1.6c-0.5,1.5-1.4,2.7-2.5,3.5C25.8,5.3,27,5,28,4.4C27.2,5.7,26.3,6.8,25.2,7.7"/>
</svg>
