<?xml version="1.0" encoding="utf-8"?>
<!-- Generator: Adobe Illustrator 23.1.0, SVG Export Plug-In . SVG Version: 6.00 Build 0)  -->
<svg version="1.1" id="Layer_1" xmlns="http://www.w3.org/2000/svg" xmlns:xlink="http://www.w3.org/1999/xlink" x="0px" y="0px"
	 viewBox="0 0 28 28" style="enable-background:new 0 0 28 28;" xml:space="preserve">
<path d="M1.2,9h5.3v19H1.2V9z M3.7,6.6L3.7,6.6c-1.9,0-3.1-1.5-3.1-3.2C0.6,1.5,1.8,0,3.8,0c1.9,0,3.1,1.5,3.1,3.2
	C6.9,5.2,5.7,6.6,3.7,6.6L3.7,6.6z M27.4,28h-5.9v-9.9c0-2.6-0.9-4.4-3-4.4c-1.6,0-2.5,1.2-2.8,2.4c-0.1,0.4-0.1,1-0.1,1.6V28H9.6
	c0,0,0.1-17.5,0-19h5.9v3c0.3-1.3,2.2-3.1,5.3-3.1c3.7,0,6.6,2.7,6.6,8.6V28L27.4,28z"/>
</svg>
