<?xml version="1.0" encoding="utf-8"?>
<!-- Generator: Adobe Illustrator 23.1.0, SVG Export Plug-In . SVG Version: 6.00 Build 0)  -->
<svg version="1.1" id="Layer_1" xmlns="http://www.w3.org/2000/svg" xmlns:xlink="http://www.w3.org/1999/xlink" x="0px" y="0px"
	 viewBox="0 0 28 28" style="enable-background:new 0 0 28 28;" xml:space="preserve">
<path style="fill-rule:evenodd;clip-rule:evenodd;" d="M24.8,14.4c-0.7,0-1.3,0-2,0c0,0.7,0,1.3,0,2h-2c0-0.7,0-1.3,0-2
	c-0.7,0-1.3,0-2,0v-1.8c0.7,0,1.3,0,2,0c0-0.7,0-1.3,0-2h2c0,0.7,0,1.3,0,2c0.7,0,1.3,0,2,0V14.4z M15.4,17.8
	c-1.7,2.4-5,3.1-7.7,2.1c-2.7-1-4.6-3.8-4.3-6.7c0-3.5,3.2-6.6,6.9-6.4c1.5-0.1,3.1,0.7,4.5,1.7C14.1,9,13.6,9.7,13,10.2
	c-1.5-1.1-3.8-1.4-5.3-0.1c-2.2,1.5-2.4,5-0.3,6.7c2.1,1.8,6,1,6.6-2c-1.3,0-2.7,0-3.9,0c0-0.8,0-1.5,0-2.4c2.2,0,4.3,0,6.6,0
	C16.7,14.4,16.5,16.2,15.4,17.8z M28,26.3c0-8.3,0-16.5,0-24.8C28.1,0.8,27.4,0,26.6,0C18.5,0,10.2,0,2.1,0C1.7,0,1.4,0,1,0
	C0.4,0.3,0,1,0,1.7C0,9.8,0,18,0,26.3C-0.1,27.1,0.7,28,1.7,28h24.8C27.3,28.1,28.1,27.3,28,26.3z"/>
</svg>
