<?xml version="1.0" encoding="utf-8"?>
<!-- Generator: Adobe Illustrator 23.1.0, SVG Export Plug-In . SVG Version: 6.00 Build 0)  -->
<svg version="1.1" id="Layer_1" xmlns="http://www.w3.org/2000/svg" xmlns:xlink="http://www.w3.org/1999/xlink" x="0px" y="0px"
	 viewBox="0 0 28 28" style="enable-background:new 0 0 28 28;" xml:space="preserve">
<path d="M14.2,27.1c-0.1,0-0.1,0-0.2,0l0,0c0,0-0.1,0-0.1,0c-1.7,0-2.7-0.8-3.8-1.5c-0.7-0.5-1.4-1-2.2-1.1
	c-0.4-0.1-0.8-0.1-1.1-0.1c-0.5,0-1.1,0.1-1.6,0.2c-0.2,0-0.4,0.1-0.6,0.1c-0.2,0-0.3,0-0.4-0.3C4.1,24.2,4.1,24,4,23.8
	c-0.1-0.5-0.2-0.9-0.4-0.9c-2.6-0.4-3.4-1-3.6-1.4c0-0.1,0-0.1,0-0.2c0-0.2,0.1-0.3,0.2-0.3c4-0.7,5.9-4.8,5.9-5c0,0,0,0,0,0
	c0.2-0.5,0.3-0.9,0.1-1.3c-0.3-0.7-1.2-0.9-1.8-1.1c-0.1,0-0.3-0.1-0.4-0.1c-1.2-0.5-1.3-1-1.2-1.2C3,11.9,3.5,11.6,4,11.6
	c0.1,0,0.2,0,0.3,0.1c0.5,0.3,1,0.4,1.4,0.4c0.6,0,0.8-0.2,0.9-0.3c0-0.3,0-0.6-0.1-0.9C6.5,9,6.3,6.6,6.9,5.2
	c1.8-4.1,5.7-4.4,6.8-4.4l0.5,0h0.1c1.1,0,5,0.3,6.8,4.4c0.6,1.4,0.5,3.7,0.3,5.6l0,0.1c0,0.3,0,0.5,0,0.8c0,0,0.3,0.3,0.8,0.3l0,0
	c0.4,0,0.9-0.1,1.4-0.4c0.1-0.1,0.3-0.1,0.4-0.1c0.2,0,0.3,0,0.5,0.1l0,0c0.4,0.1,0.7,0.4,0.7,0.7c0,0.3-0.2,0.7-1.3,1.1
	c-0.1,0-0.2,0.1-0.4,0.1c-0.6,0.2-1.5,0.5-1.8,1.1c-0.2,0.4-0.1,0.8,0.1,1.3c0,0,0,0,0,0c0.1,0.2,1.9,4.3,5.9,5
	c0.1,0,0.3,0.2,0.2,0.3c0,0.1,0,0.1,0,0.2c-0.2,0.4-0.9,0.9-3.6,1.4c-0.2,0-0.3,0.3-0.4,0.9c0,0.2-0.1,0.4-0.2,0.6
	c0,0.2-0.2,0.3-0.4,0.3h0c-0.2,0-0.4,0-0.6-0.1c-0.5-0.1-1-0.2-1.6-0.2c-0.4,0-0.8,0-1.1,0.1c-0.8,0.1-1.5,0.6-2.2,1.1
	C16.9,26.4,15.8,27.1,14.2,27.1z"/>
</svg>
