<?xml version="1.0" encoding="utf-8"?>
<!-- Generator: Adobe Illustrator 23.1.0, SVG Export Plug-In . SVG Version: 6.00 Build 0)  -->
<svg version="1.1" id="Layer_1" xmlns="http://www.w3.org/2000/svg" xmlns:xlink="http://www.w3.org/1999/xlink" x="0px" y="0px"
	 viewBox="0 0 28 28" style="enable-background:new 0 0 28 28;" xml:space="preserve">
<path d="M24.8,6.5c-1.4-0.3-2.7-1-3.6-2.1c-1-1.2-1.7-2.8-1.7-4.4h-4.9v19.3c-0.1,1.7-1.2,3.2-2.9,3.7s-3.5-0.1-4.5-1.5l-0.1-0.1
	c0.1,0,0.1,0.1,0.1,0.1c-0.9-1.2-1-2.9-0.3-4.2s2.1-2.2,3.6-2.2c0.4,0,0.8,0.1,1.2,0.2v-4.9c-0.4-0.1-0.8-0.1-1.2-0.1h-0.2
	c-3.5,0.1-6.6,2.2-8,5.5c-0.4,1-0.7,2.1-0.7,3.2s0.2,2.2,0.5,3.2c0.4,1,1,2,1.7,2.8c0.1,0.2,0.3,0.3,0.4,0.4C5,26.2,6,26.8,7,27.2
	s2.1,0.7,3.2,0.7s2.3-0.1,3.3-0.5h0.1c3.4-1.3,5.6-4.6,5.6-8.2V9.3c2,1.4,4.3,2.1,6.7,2.1V6.7C25.8,6.7,25.3,6.6,24.8,6.5z"/>
</svg>
